<svg xmlns="http://www.w3.org/2000/svg" viewBox="0 0 640 640"><!--! Font Awesome Pro 7.0.0 by @fontawesome - https://fontawesome.com License - https://fontawesome.com/license (Commercial License) Copyright 2025 Fonticons, Inc. --><path fill="currentColor" d="M240 160L240 192L112 192C103.2 192 96 199.2 96 208L96 432C96 440.8 103.2 448 112 448L246.7 448C242.4 457.8 240 468.6 240 480C240 491.4 242.4 502.2 246.7 512L112 512C67.8 512 32 476.2 32 432L32 208C32 163.8 67.8 128 112 128L246.7 128C242.4 137.8 240 148.6 240 160zM400 160C400 148.6 397.6 137.8 393.3 128L528 128C572.2 128 608 163.8 608 208L608 256C625.7 256 640 270.3 640 288L640 352C640 369.7 625.7 384 608 384L608 432C608 476.2 572.2 512 528 512L393.3 512C397.6 502.2 400 491.4 400 480C400 468.6 397.6 457.8 393.3 448L528 448C536.8 448 544 440.8 544 432L544 208C544 199.2 536.8 192 528 192L400 192L400 160zM320 128C337.7 128 352 142.3 352 160L352 368C352 385.7 337.7 400 320 400C302.3 400 288 385.7 288 368L288 160C288 142.3 302.3 128 320 128zM288 480C288 462.3 302.3 448 320 448C337.7 448 352 462.3 352 480C352 497.7 337.7 512 320 512C302.3 512 288 497.7 288 480z"/></svg>