<svg xmlns="http://www.w3.org/2000/svg" viewBox="0 0 640 640"><!--! Font Awesome Pro 7.0.0 by @fontawesome - https://fontawesome.com License - https://fontawesome.com/license (Commercial License) Copyright 2025 Fonticons, Inc. --><path fill="currentColor" d="M320 64C302.3 64 288 78.3 288 96L288 99.2C215 114 160 178.6 160 256L160 277.7C160 325.8 143.6 372.5 113.6 410.1L103.8 422.3C98.7 428.6 96 436.4 96 444.5C96 464.1 111.9 480 131.5 480L508.4 480C528 480 543.9 464.1 543.9 444.5C543.9 436.4 541.2 428.6 536.1 422.3L526.3 410.1C496.4 372.5 480 325.8 480 277.7L480 256C480 178.6 425 114 352 99.2L352 96C352 78.3 337.7 64 320 64zM258 528C265.1 555.6 290.2 576 320 576C349.8 576 374.9 555.6 382 528L258 528zM320 168C333.3 168 344 178.7 344 192L344 304C344 317.3 333.3 328 320 328C306.7 328 296 317.3 296 304L296 192C296 178.7 306.7 168 320 168zM293.3 384C292.7 374.1 297.6 364.7 306.1 359.5C314.6 354.4 325.3 354.4 333.8 359.5C342.3 364.7 347.2 374.1 346.6 384C347.2 393.9 342.3 403.3 333.8 408.5C325.3 413.6 314.6 413.6 306.1 408.5C297.6 403.3 292.7 393.9 293.3 384z"/></svg>