<svg xmlns="http://www.w3.org/2000/svg" viewBox="0 0 640 640"><!--! Font Awesome Pro 7.0.0 by @fontawesome - https://fontawesome.com License - https://fontawesome.com/license (Commercial License) Copyright 2025 Fonticons, Inc. --><path fill="currentColor" d="M431.1 144L465.4 192L174.7 192L209 144L431.1 144zM107.9 175.3C100.2 186.2 96 199.2 96 212.5L96 480C96 515.3 124.7 544 160 544L480 544C515.3 544 544 515.3 544 480L544 212.5C544 199.2 539.8 186.2 532.1 175.3L483.1 106.8C471.1 90 451.7 80 431.1 80L208.9 80C188.3 80 168.9 90 156.9 106.8L107.9 175.3zM337 271L409 343C418.4 352.4 418.4 367.6 409 376.9C399.6 386.2 384.4 386.3 375.1 376.9L344.1 345.9L344.1 448C344.1 461.3 333.4 472 320.1 472C306.8 472 296.1 461.3 296.1 448L296.1 345.9L265.1 376.9C255.7 386.3 240.5 386.3 231.2 376.9C221.9 367.5 221.8 352.3 231.2 343L303.2 271C312.6 261.6 327.8 261.6 337.1 271z"/></svg>