<svg xmlns="http://www.w3.org/2000/svg" viewBox="0 0 640 640"><!--! Font Awesome Pro 7.0.0 by @fontawesome - https://fontawesome.com License - https://fontawesome.com/license (Commercial License) Copyright 2025 Fonticons, Inc. --><path fill="currentColor" d="M431.1 144L465.4 192L174.7 192L209 144L431.1 144zM107.9 175.3C100.2 186.2 96 199.2 96 212.5L96 480C96 515.3 124.7 544 160 544L480 544C515.3 544 544 515.3 544 480L544 212.5C544 199.2 539.8 186.2 532.1 175.3L483.1 106.8C471.1 90 451.7 80 431.1 80L208.9 80C188.3 80 168.9 90 156.9 106.8L107.9 175.3zM404.4 324.7L324.4 452.7C320.2 459.4 313 463.6 305.1 464C297.2 464.4 289.6 460.8 284.9 454.4L236.9 390.4C228.9 379.8 231.1 364.8 241.7 356.8C252.3 348.8 267.3 351 275.3 361.6L302.3 397.6L363.7 299.3C370.7 288.1 385.5 284.6 396.8 291.7C408.1 298.8 411.5 313.5 404.4 324.8z"/></svg>