<svg xmlns="http://www.w3.org/2000/svg" viewBox="0 0 640 640"><!--! Font Awesome Pro 7.0.0 by @fontawesome - https://fontawesome.com License - https://fontawesome.com/license (Commercial License) Copyright 2025 Fonticons, Inc. --><path fill="currentColor" d="M433.9 192L399.6 144L177.5 144L143.2 192L433.9 192zM64.5 212.5C64.5 199.2 68.7 186.2 76.4 175.3L125.4 106.8C137.4 90 156.8 80 177.4 80L399.5 80C420.2 80 439.6 90 451.6 106.8L500.5 175.3C508.3 186.2 512.4 199.2 512.4 212.5L512.4 277.9C487.6 264 458.9 256 428.4 256C333.4 256 256.4 333 256.4 428C256.4 472.7 273.5 513.4 301.4 544L128.4 544C93.1 544 64.4 515.3 64.4 480L64.4 212.5zM428.5 496C466.1 496 496.5 465.6 496.5 428C496.5 390.4 466.1 360 428.5 360C390.9 360 360.5 390.4 360.5 428C360.5 465.6 390.9 496 428.5 496zM428.5 552C360 552 304.5 496.5 304.5 428C304.5 359.5 360 304 428.5 304C497 304 552.5 359.5 552.5 428C552.5 452.1 545.6 474.7 533.7 493.7L588.3 548.3C599.2 559.2 599.2 577 588.3 587.9C577.4 598.8 559.6 598.8 548.7 587.9L494 533.3C475 545.2 452.5 552 428.5 552z"/></svg>