<svg xmlns="http://www.w3.org/2000/svg" viewBox="0 0 640 640"><!--! Font Awesome Pro 7.0.0 by @fontawesome - https://fontawesome.com License - https://fontawesome.com/license (Commercial License) Copyright 2025 Fonticons, Inc. --><path fill="currentColor" d="M96 320C96 196.3 196.3 96 320 96C443.7 96 544 196.3 544 320C544 443.7 443.7 544 320 544C196.3 544 96 443.7 96 320zM344 224C344 210.7 333.3 200 320 200C306.7 200 296 210.7 296 224L296 336C296 349.3 306.7 360 320 360C333.3 360 344 349.3 344 336L344 224zM320 442.7C329.9 443.3 339.3 438.4 344.5 429.9C349.6 421.4 349.6 410.7 344.5 402.2C339.3 393.7 329.9 388.8 320 389.4C310.1 388.8 300.7 393.7 295.5 402.2C290.4 410.7 290.4 421.4 295.5 429.9C300.7 438.4 310.1 443.3 320 442.7zM91.1 173C63.8 215.4 48 265.8 48 320C48 374.2 63.8 424.6 91.1 467C98.3 478.1 95.1 493 83.9 500.2C72.7 507.4 57.9 504.2 50.7 493C18.6 443.1 0 383.7 0 320C0 256.3 18.6 196.9 50.7 147C57.9 135.9 72.7 132.6 83.9 139.8C95.1 147 98.3 161.8 91.1 173zM589.3 147C621.4 196.9 640 256.3 640 320C640 383.7 621.4 443.1 589.3 493C582.1 504.1 567.3 507.4 556.1 500.2C544.9 493 541.7 478.2 548.9 467C576.2 424.6 592 374.2 592 320C592 265.8 576.2 215.4 548.9 173C541.7 161.9 544.9 147 556.1 139.8C567.3 132.6 582.1 135.8 589.3 147z"/></svg>