<svg xmlns="http://www.w3.org/2000/svg" viewBox="0 0 640 640"><!--! Font Awesome Pro 7.0.0 by @fontawesome - https://fontawesome.com License - https://fontawesome.com/license (Commercial License) Copyright 2025 Fonticons, Inc. --><path fill="currentColor" d="M224 64C241.7 64 256 78.3 256 96L256 128L384 128L384 96C384 78.3 398.3 64 416 64C433.7 64 448 78.3 448 96L448 128L480 128C515.3 128 544 156.7 544 192L544 480C544 515.3 515.3 544 480 544L160 544C124.7 544 96 515.3 96 480L96 192C96 156.7 124.7 128 160 128L192 128L192 96C192 78.3 206.3 64 224 64zM320 232C306.7 232 296 242.7 296 256L296 368C296 381.3 306.7 392 320 392C333.3 392 344 381.3 344 368L344 256C344 242.7 333.3 232 320 232zM346.7 448C347.3 438.1 342.4 428.7 333.9 423.5C325.4 418.4 314.7 418.4 306.2 423.5C297.7 428.7 292.8 438.1 293.4 448C292.8 457.9 297.7 467.3 306.2 472.5C314.7 477.6 325.4 477.6 333.9 472.5C342.4 467.3 347.3 457.9 346.7 448z"/></svg>