<svg xmlns="http://www.w3.org/2000/svg" viewBox="0 0 640 640"><!--! Font Awesome Pro 7.0.0 by @fontawesome - https://fontawesome.com License - https://fontawesome.com/license (Commercial License) Copyright 2025 Fonticons, Inc. --><path fill="currentColor" d="M66.1 304.2C64.7 309.3 64 314.6 64 320L576 320L576 304.2C576 246.7 552.7 194.6 515 157zM515 157C514 156 513 155 512 154.1L515 157zM512 154C474.6 118.1 423.8 96 367.8 96L512 154zM367.8 96C357.5 96 347.5 99 338.9 104.7L367.8 96zM338.9 104.7L338.9 104.7zM291.9 136C284.1 141.2 282.7 152.1 285.6 161.1L291.9 136zM285.6 161.1L288 176C288 170.8 287.2 165.8 285.7 161.1zM288 176L240 224C266.5 224 288 202.5 288 176zM240 224L208.7 212.4C217.1 219.6 228 224 240 224zM208.7 212.4L183.2 208.6C191 203.4 201.6 206.3 208.7 212.4zM183.2 208.6L183.2 208.6zM160 224L160 224zM90.6 270.2L66.1 304.2C69.9 290.5 78.5 278.4 90.6 270.3zM488.6 368C481.8 368 476 372.4 472.3 378.1C463.7 391.3 448.9 400 432 400C415.1 400 400.3 391.3 391.7 378.1C388 372.4 382.2 368 375.4 368L64 368L64 480C64 515.3 92.7 544 128 544L512 544C547.3 544 576 515.3 576 480L576 368L488.6 368zM192 448C192 421.5 213.5 400 240 400C266.5 400 288 421.5 288 448C288 474.5 266.5 496 240 496C213.5 496 192 474.5 192 448z"/></svg>