<svg xmlns="http://www.w3.org/2000/svg" viewBox="0 0 640 640"><!--! Font Awesome Pro 7.0.0 by @fontawesome - https://fontawesome.com License - https://fontawesome.com/license (Commercial License) Copyright 2025 Fonticons, Inc. --><path fill="currentColor" d="M320 576C379 576 433.4 556 476.7 522.5C474.5 520.2 472.4 517.8 470.4 515.2L422.4 451.2C398.5 419.4 405 374.3 436.8 350.4C462 331.5 495.6 331.6 520.4 348.4L547 305.9C553.7 295.1 562.7 286.8 573.1 281C554.3 158.1 448.1 64 320 64C178.6 64 64 178.6 64 320C64 461.4 178.6 576 320 576zM320 200C333.3 200 344 210.7 344 224L344 336C344 349.3 333.3 360 320 360C306.7 360 296 349.3 296 336L296 224C296 210.7 306.7 200 320 200zM293.3 416C292.7 406.1 297.6 396.7 306.1 391.5C314.6 386.4 325.3 386.4 333.8 391.5C342.3 396.7 347.2 406.1 346.6 416C347.2 425.9 342.3 435.3 333.8 440.5C325.3 445.6 314.6 445.6 306.1 440.5C297.6 435.3 292.7 425.9 293.3 416zM628.3 356.7C635.3 345.5 631.9 330.7 620.7 323.6C609.5 316.5 594.7 320 587.6 331.2L526.2 429.5L499.2 393.5C491.2 382.9 476.2 380.7 465.6 388.7C455 396.7 452.8 411.7 460.8 422.3L508.8 486.3C513.5 492.6 521.1 496.2 529 495.9C536.9 495.6 544.1 491.4 548.3 484.6L628.3 356.6z"/></svg>