<svg xmlns="http://www.w3.org/2000/svg" viewBox="0 0 640 640"><!--! Font Awesome Pro 7.0.0 by @fontawesome - https://fontawesome.com License - https://fontawesome.com/license (Commercial License) Copyright 2025 Fonticons, Inc. --><path fill="currentColor" d="M320 576C461.4 576 576 461.4 576 320C576 178.6 461.4 64 320 64C178.6 64 64 178.6 64 320C64 461.4 178.6 576 320 576zM423.1 214.6L359.1 438.6C355.5 451.3 342.2 458.7 329.4 455.1C316.6 451.5 309.3 438.2 312.9 425.4L376.9 201.4C380.5 188.7 393.8 181.3 406.6 184.9C419.4 188.5 426.7 201.8 423.1 214.6zM247.6 216L272 216C285.3 216 296 226.7 296 240C296 253.3 285.3 264 272 264L247.6 264C239 264 232 271 232 279.6C232 287 237.2 293.4 244.5 294.9L260.9 298.2C290.6 304.1 312 330.2 312 360.5C312 395.6 283.5 424.1 248.4 424.1L216 424C202.7 424 192 413.3 192 400C192 386.7 202.7 376 216 376L248.4 376C257 376 264 369 264 360.4C264 353 258.8 346.6 251.5 345.1L235.1 341.8C205.4 335.9 184 309.8 184 279.5C184 244.4 212.5 215.9 247.6 215.9zM400 392C400 378.7 410.7 368 424 368C437.3 368 448 378.7 448 392C448 405.3 437.3 416 424 416C410.7 416 400 405.3 400 392z"/></svg>