<svg xmlns="http://www.w3.org/2000/svg" viewBox="0 0 640 640"><!--! Font Awesome Pro 7.0.0 by @fontawesome - https://fontawesome.com License - https://fontawesome.com/license (Commercial License) Copyright 2025 Fonticons, Inc. --><path fill="currentColor" d="M439.4 96L448 96C483.3 96 512 124.7 512 160L512 512C512 547.3 483.3 576 448 576L192 576C156.7 576 128 547.3 128 512L128 160C128 124.7 156.7 96 192 96L200.6 96C211.6 76.9 232.3 64 256 64L384 64C407.7 64 428.4 76.9 439.4 96zM376 176C389.3 176 400 165.3 400 152C400 138.7 389.3 128 376 128L264 128C250.7 128 240 138.7 240 152C240 165.3 250.7 176 264 176L376 176zM320 264C306.7 264 296 274.7 296 288L296 400C296 413.3 306.7 424 320 424C333.3 424 344 413.3 344 400L344 288C344 274.7 333.3 264 320 264zM346.7 480C346.7 465.3 334.8 453.3 320 453.3C305.2 453.3 293.3 465.2 293.3 480C293.3 494.8 305.2 506.7 320 506.7C334.8 506.7 346.7 494.8 346.7 480z"/></svg>