<svg xmlns="http://www.w3.org/2000/svg" viewBox="0 0 640 640"><!--! Font Awesome Pro 7.0.0 by @fontawesome - https://fontawesome.com License - https://fontawesome.com/license (Commercial License) Copyright 2025 Fonticons, Inc. --><path fill="currentColor" d="M176 544C96.5 544 32 479.5 32 400C32 336.6 73 282.8 129.9 263.5C128.6 255.8 128 248 128 240C128 160.5 192.5 96 272 96C327.4 96 375.5 127.3 399.6 173.1C413.8 164.8 430.4 160 448 160C501 160 544 203 544 256C544 271.7 540.2 286.6 533.5 299.7C577.5 320 608 364.4 608 416C608 486.7 550.7 544 480 544L176 544zM320 232C306.7 232 296 242.7 296 256L296 368C296 381.3 306.7 392 320 392C333.3 392 344 381.3 344 368L344 256C344 242.7 333.3 232 320 232zM346.7 448C347.3 438.1 342.4 428.7 333.9 423.5C325.4 418.4 314.7 418.4 306.2 423.5C297.7 428.7 292.8 438.1 293.4 448C292.8 457.9 297.7 467.3 306.2 472.5C314.7 477.6 325.4 477.6 333.9 472.5C342.4 467.3 347.3 457.9 346.7 448z"/></svg>