<svg xmlns="http://www.w3.org/2000/svg" viewBox="0 0 640 640"><!--! Font Awesome Pro 7.0.0 by @fontawesome - https://fontawesome.com License - https://fontawesome.com/license (Commercial License) Copyright 2025 Fonticons, Inc. --><path fill="currentColor" d="M176 544C96.5 544 32 479.5 32 400C32 336.6 73 282.8 129.9 263.5C128.6 255.8 128 248 128 240C128 160.5 192.5 96 272 96C327.4 96 375.5 127.3 399.6 173.1C413.8 164.8 430.4 160 448 160C501 160 544 203 544 256C544 271.7 540.2 286.6 533.5 299.7C577.5 320 608 364.4 608 416C608 486.7 550.7 544 480 544L176 544zM404.4 308.7C411.4 297.5 408 282.7 396.8 275.6C385.6 268.5 370.8 272 363.7 283.2L302.3 381.5L275.3 345.5C267.3 334.9 252.3 332.7 241.7 340.7C231.1 348.7 228.9 363.7 236.9 374.3L284.9 438.3C289.6 444.6 297.2 448.2 305.1 447.9C313 447.6 320.2 443.4 324.4 436.6L404.4 308.6z"/></svg>