<svg xmlns="http://www.w3.org/2000/svg" viewBox="0 0 640 640"><!--! Font Awesome Pro 7.0.0 by @fontawesome - https://fontawesome.com License - https://fontawesome.com/license (Commercial License) Copyright 2025 Fonticons, Inc. --><path fill="currentColor" d="M320 544C461.4 544 576 436.5 576 304C576 171.5 461.4 64 320 64C178.6 64 64 171.5 64 304C64 358.3 83.2 408.3 115.6 448.5L66.8 540.8C62 549.8 63.5 560.8 70.4 568.3C77.3 575.8 88.2 578.1 97.5 574.1L215.9 523.4C247.7 536.6 282.9 544 320 544zM404.4 244.7L324.4 372.7C320.2 379.4 313 383.6 305.1 384C297.2 384.4 289.6 380.8 284.9 374.4L236.9 310.4C228.9 299.8 231.1 284.8 241.7 276.8C252.3 268.8 267.3 271 275.3 281.6L302.3 317.6L363.7 219.3C370.7 208.1 385.5 204.6 396.8 211.7C408.1 218.8 411.5 233.5 404.4 244.8z"/></svg>