<svg xmlns="http://www.w3.org/2000/svg" viewBox="0 0 640 640"><!--! Font Awesome Pro 7.0.0 by @fontawesome - https://fontawesome.com License - https://fontawesome.com/license (Commercial License) Copyright 2025 Fonticons, Inc. --><path fill="currentColor" d="M320 544C461.4 544 576 436.5 576 304C576 171.5 461.4 64 320 64C178.6 64 64 171.5 64 304C64 358.3 83.2 408.3 115.6 448.5L66.8 540.8C62 549.8 63.5 560.8 70.4 568.3C77.3 575.8 88.2 578.1 97.5 574.1L215.9 523.4C247.7 536.6 282.9 544 320 544zM320 184C333.3 184 344 194.7 344 208L344 320C344 333.3 333.3 344 320 344C306.7 344 296 333.3 296 320L296 208C296 194.7 306.7 184 320 184zM293.3 400C292.7 390.1 297.6 380.7 306.1 375.5C314.6 370.4 325.3 370.4 333.8 375.5C342.3 380.7 347.2 390.1 346.6 400C347.2 409.9 342.3 419.3 333.8 424.5C325.3 429.6 314.6 429.6 306.1 424.5C297.6 419.3 292.7 409.9 293.3 400z"/></svg>