<svg xmlns="http://www.w3.org/2000/svg" viewBox="0 0 512 512"><!--! Font Awesome Pro 7.3.0 by @fontawesome - https://fontawesome.com License - https://fontawesome.com/license (Commercial License) Copyright 2026 Fonticons, Inc. --><path fill="currentColor" d="M512 384c0 35.3-28.7 64-64 64L64 448c-35.3 0-64-28.7-64-64L0 196 138.2 299.7c8 11.1 16.7 20.6 24.6 28.3 23.7 22.8 49.9 38.9 62.5 46 19 10.8 42.2 10.8 61.2 0 12.6-7.1 38.8-23.2 62.5-46 8-7.7 16.6-17.2 24.6-28.3L512 196 512 384zM464 64c26.5 0 48 21.5 48 48 0 15.1-7.1 29.3-19.2 38.4l-92.9 69.7C397.8 168.9 355.7 128 304 128l-2.9 0c-15.8 0-31.3 3.9-45.1 11-13.8-7.1-29.3-11-45.1-11l-2.9 0c-51.7 0-93.8 40.9-95.9 92.1L19.2 150.4C7.1 141.3 0 127.1 0 112 0 85.5 21.5 64 48 64l416 0zM210.9 176c13.5 0 26.5 5.4 36 14.9l9.1 9.1 9.1-9.1c9.5-9.5 22.5-14.9 36-14.9l2.9 0c26.5 0 48 21.5 48 48 0 53.4-66.9 95.7-89 108.2-4.4 2.5-9.6 2.5-14 0-22.1-12.5-89-54.8-89-108.2 0-26.5 21.5-48 48-48l2.9 0z"/></svg>