<svg xmlns="http://www.w3.org/2000/svg" viewBox="0 0 640 640"><!--! Font Awesome Pro 7.0.0 by @fontawesome - https://fontawesome.com License - https://fontawesome.com/license (Commercial License) Copyright 2025 Fonticons, Inc. --><path fill="currentColor" d="M128 128C128 92.7 156.7 64 192 64L341.5 64C358.5 64 374.8 70.7 386.8 82.7L493.3 189.3C505.3 201.3 512 217.6 512 234.6L512 512C512 547.3 483.3 576 448 576L192 576C156.7 576 128 547.3 128 512L128 128zM336 122.5L336 216C336 229.3 346.7 240 360 240L453.5 240L336 122.5zM404.4 356.7C411.4 345.5 408 330.7 396.8 323.6C385.6 316.5 370.8 320 363.7 331.2L302.3 429.5L275.3 393.5C267.3 382.9 252.3 380.7 241.7 388.7C231.1 396.7 228.9 411.7 236.9 422.3L284.9 486.3C289.6 492.6 297.2 496.2 305.1 495.9C313 495.6 320.2 491.4 324.4 484.6L404.4 356.6z"/></svg>