<svg xmlns="http://www.w3.org/2000/svg" viewBox="0 0 640 640"><!--! Font Awesome Pro 7.0.0 by @fontawesome - https://fontawesome.com License - https://fontawesome.com/license (Commercial License) Copyright 2025 Fonticons, Inc. --><path fill="currentColor" d="M192 64C156.7 64 128 92.7 128 128L128 512C128 547.3 156.7 576 192 576L448 576C483.3 576 512 547.3 512 512L512 234.5C512 217.5 505.3 201.2 493.3 189.2L386.7 82.7C374.7 70.7 358.5 64 341.5 64L192 64zM453.5 240L360 240C346.7 240 336 229.3 336 216L336 122.5L453.5 240zM346.7 480C346.7 494.7 334.8 506.7 320 506.7C305.2 506.7 293.3 494.8 293.3 480C293.3 465.2 305.2 453.3 320 453.3C334.8 453.3 346.7 465.2 346.7 480zM344 312L344 400C344 413.3 333.3 424 320 424C306.7 424 296 413.3 296 400L296 312C296 298.7 306.7 288 320 288C333.3 288 344 298.7 344 312z"/></svg>