<svg xmlns="http://www.w3.org/2000/svg" viewBox="0 0 640 640"><!--! Font Awesome Pro 7.0.0 by @fontawesome - https://fontawesome.com License - https://fontawesome.com/license (Commercial License) Copyright 2025 Fonticons, Inc. --><path fill="currentColor" d="M512 512L128 512C92.7 512 64 483.3 64 448L64 160C64 124.7 92.7 96 128 96L266.7 96C280.5 96 294 100.5 305.1 108.8L343.5 137.6C349 141.8 355.8 144 362.7 144L512 144C547.3 144 576 172.7 576 208L576 448C576 483.3 547.3 512 512 512zM404.4 276.7C411.4 265.5 408 250.7 396.8 243.6C385.6 236.5 370.8 240 363.7 251.2L302.3 349.5L275.3 313.5C267.3 302.9 252.3 300.7 241.7 308.7C231.1 316.7 228.9 331.7 236.9 342.3L284.9 406.3C289.6 412.6 297.2 416.2 305.1 415.9C313 415.6 320.2 411.4 324.4 404.6L404.4 276.6z"/></svg>