<svg xmlns="http://www.w3.org/2000/svg" viewBox="0 0 640 640"><!--! Font Awesome Pro 7.0.0 by @fontawesome - https://fontawesome.com License - https://fontawesome.com/license (Commercial License) Copyright 2025 Fonticons, Inc. --><path fill="currentColor" d="M65.5 355.8C52.8 333.6 52.8 306.4 65.5 284.3L161.7 116.2C174.5 93.8 198.4 80 224.2 80L415.8 80C441.6 80 465.5 93.8 478.3 116.2L574.5 284.3C587.2 306.5 587.2 333.7 574.5 355.8L478.3 523.9C465.5 546.3 441.6 560.1 415.8 560.1L224.2 560.1C198.4 560.1 174.5 546.3 161.7 523.9L65.5 355.8zM404.3 276.7C411.3 265.5 407.9 250.7 396.7 243.6C385.5 236.5 370.7 240 363.6 251.2L302.2 349.5L275.2 313.5C267.2 302.9 252.2 300.7 241.6 308.7C231 316.7 228.8 331.7 236.8 342.3L284.8 406.3C289.5 412.6 297.1 416.2 305 415.9C312.9 415.6 320.1 411.4 324.3 404.6L404.3 276.6z"/></svg>