<svg xmlns="http://www.w3.org/2000/svg" viewBox="0 0 640 640"><!--! Font Awesome Pro 7.0.0 by @fontawesome - https://fontawesome.com License - https://fontawesome.com/license (Commercial License) Copyright 2025 Fonticons, Inc. --><path fill="currentColor" d="M65.5 355.8C52.8 333.6 52.8 306.4 65.5 284.3L161.7 116.2C174.5 93.8 198.4 80 224.2 80L415.8 80C441.6 80 465.5 93.8 478.3 116.2L574.5 284.3C587.2 306.5 587.2 333.7 574.5 355.8L478.3 523.9C465.5 546.3 441.6 560.1 415.8 560.1L224.2 560.1C198.4 560.1 174.5 546.3 161.7 523.9L65.5 355.8zM320 200C306.7 200 296 210.7 296 224L296 336C296 349.3 306.7 360 320 360C333.3 360 344 349.3 344 336L344 224C344 210.7 333.3 200 320 200zM346.7 416C347.3 406.1 342.4 396.7 333.9 391.5C325.4 386.4 314.7 386.4 306.2 391.5C297.7 396.7 292.8 406.1 293.4 416C292.8 425.9 297.7 435.3 306.2 440.5C314.7 445.6 325.4 445.6 333.9 440.5C342.4 435.3 347.3 425.9 346.7 416z"/></svg>