<svg xmlns="http://www.w3.org/2000/svg" viewBox="0 0 640 640"><!--! Font Awesome Pro 7.0.0 by @fontawesome - https://fontawesome.com License - https://fontawesome.com/license (Commercial License) Copyright 2025 Fonticons, Inc. --><path fill="currentColor" d="M224 496L416 496L416 512C416 556.2 380.2 592 336 592L304 592C259.8 592 224 556.2 224 512L224 496zM459.3 388.1C442.8 405.5 428.1 425.7 420.9 448L219.2 448C211.9 425.7 197.3 405.5 180.8 388.1C148.1 353.7 128.1 307.2 128.1 256C128.1 150 214.1 64 320.1 64C426.1 64 512 150 512 256C512 307.2 492 353.7 459.3 388.1zM26.5 101.3C32.4 89.4 46.8 84.6 58.7 90.6L90.7 106.6C102.6 112.5 107.4 126.9 101.4 138.8C95.4 150.7 81.1 155.4 69.3 149.5L37.3 133.5C25.4 127.5 20.6 113.1 26.5 101.3zM613.4 101.3C619.3 113.2 614.5 127.6 602.7 133.5L570.7 149.5C558.8 155.4 544.4 150.6 538.5 138.8C532.6 127 537.4 112.5 549.2 106.6L581.2 90.6C593.1 84.7 607.5 89.5 613.4 101.3zM0 256C0 242.7 10.7 232 24 232L56 232C69.3 232 80 242.7 80 256C80 269.3 69.3 280 56 280L24 280C10.7 280 0 269.3 0 256zM560 256C560 242.7 570.7 232 584 232L616 232C629.3 232 640 242.7 640 256C640 269.3 629.3 280 616 280L584 280C570.7 280 560 269.3 560 256zM101.5 373.3C107.4 385.2 102.6 399.6 90.8 405.5L58.8 421.5C46.9 427.4 32.5 422.6 26.6 410.8C20.7 399 25.5 384.5 37.3 378.6L69.3 362.6C81.2 356.7 95.6 361.5 101.5 373.3zM538.6 373.3C544.5 361.4 558.9 356.6 570.8 362.6L602.8 378.6C614.7 384.5 619.5 398.9 613.5 410.8C607.5 422.7 593.2 427.5 581.3 421.5L549.3 405.5C537.4 399.6 532.6 385.2 538.6 373.3zM320 136C306.7 136 296 146.7 296 160L296 272C296 285.3 306.7 296 320 296C333.3 296 344 285.3 344 272L344 160C344 146.7 333.3 136 320 136zM346.7 352C347.3 342.1 342.4 332.7 333.9 327.5C325.4 322.4 314.7 322.4 306.2 327.5C297.7 332.7 292.8 342.1 293.4 352C292.8 361.9 297.7 371.3 306.2 376.5C314.7 381.6 325.4 381.6 333.9 376.5C342.4 371.3 347.3 361.9 346.7 352z"/></svg>