<svg xmlns="http://www.w3.org/2000/svg" viewBox="0 0 640 640"><!--! Font Awesome Pro 7.0.0 by @fontawesome - https://fontawesome.com License - https://fontawesome.com/license (Commercial License) Copyright 2025 Fonticons, Inc. --><path fill="currentColor" d="M224 512C224 556.2 259.8 592 304 592L336 592C380.2 592 416 556.2 416 512L416 496L224 496L224 512zM420.9 448C428.2 425.7 442.8 405.5 459.3 388.1C492 353.7 512 307.2 512 256C512 150 426 64 320 64C214 64 128 150 128 256C128 307.2 148 353.7 180.7 388.1C197.2 405.5 211.9 425.7 219.1 448L420.8 448zM320 136C333.3 136 344 146.7 344 160L344 272C344 285.3 333.3 296 320 296C306.7 296 296 285.3 296 272L296 160C296 146.7 306.7 136 320 136zM293.3 352C292.7 342.1 297.6 332.7 306.1 327.5C314.6 322.4 325.3 322.4 333.8 327.5C342.3 332.7 347.2 342.1 346.6 352C347.2 361.9 342.3 371.3 333.8 376.5C325.3 381.6 314.6 381.6 306.1 376.5C297.6 371.3 292.7 361.9 293.3 352z"/></svg>