<svg xmlns="http://www.w3.org/2000/svg" viewBox="0 0 640 640"><!--! Font Awesome Pro 7.0.0 by @fontawesome - https://fontawesome.com License - https://fontawesome.com/license (Commercial License) Copyright 2025 Fonticons, Inc. --><path fill="currentColor" d="M128 252.6C128 148.4 214 64 320 64C426 64 512 148.4 512 252.6C512 371.9 391.8 514.9 341.6 569.4C329.8 582.2 310.1 582.2 298.3 569.4C248.1 514.9 127.9 371.9 127.9 252.6zM404.4 228.7C411.4 217.5 408 202.7 396.8 195.6C385.6 188.5 370.8 192 363.7 203.2L302.3 301.5L275.3 265.5C267.3 254.9 252.3 252.7 241.7 260.7C231.1 268.7 228.9 283.7 236.9 294.3L284.9 358.3C289.6 364.6 297.2 368.2 305.1 367.9C313 367.6 320.2 363.4 324.4 356.6L404.4 228.6z"/></svg>