<svg xmlns="http://www.w3.org/2000/svg" viewBox="0 0 640 640"><!--! Font Awesome Pro 7.0.0 by @fontawesome - https://fontawesome.com License - https://fontawesome.com/license (Commercial License) Copyright 2025 Fonticons, Inc. --><path fill="currentColor" d="M128 252.6C128 148.4 214 64 320 64C426 64 512 148.4 512 252.6C512 371.9 391.8 514.9 341.6 569.4C329.8 582.2 310.1 582.2 298.3 569.4C248.1 514.9 127.9 371.9 127.9 252.6zM320 168C306.7 168 296 178.7 296 192L296 304C296 317.3 306.7 328 320 328C333.3 328 344 317.3 344 304L344 192C344 178.7 333.3 168 320 168zM346.7 384C347.3 374.1 342.4 364.7 333.9 359.5C325.4 354.4 314.7 354.4 306.2 359.5C297.7 364.7 292.8 374.1 293.4 384C292.8 393.9 297.7 403.3 306.2 408.5C314.7 413.6 325.4 413.6 333.9 408.5C342.4 403.3 347.3 393.9 346.7 384z"/></svg>