<svg xmlns="http://www.w3.org/2000/svg" viewBox="0 0 640 640"><!--! Font Awesome Pro 7.0.0 by @fontawesome - https://fontawesome.com License - https://fontawesome.com/license (Commercial License) Copyright 2025 Fonticons, Inc. --><path fill="currentColor" d="M64 192L64 416C64 469 107 512 160 512L192 512L192 584C192 597.3 202.7 608 216 608C221.2 608 226.2 606.3 230.4 603.2L345.6 516.8C349.8 513.7 354.8 512 360 512L480 512C533 512 576 469 576 416L576 192C576 139 533 96 480 96L160 96C107 96 64 139 64 192zM404.4 244.7L324.4 372.7C320.2 379.4 313 383.6 305.1 384C297.2 384.4 289.6 380.8 284.9 374.4L236.9 310.4C228.9 299.8 231.1 284.8 241.7 276.8C252.3 268.8 267.3 271 275.3 281.6L302.3 317.6L363.7 219.3C370.7 208.1 385.5 204.6 396.8 211.7C408.1 218.8 411.5 233.5 404.4 244.8z"/></svg>