<svg xmlns="http://www.w3.org/2000/svg" viewBox="0 0 640 640"><!--! Font Awesome Pro 7.0.0 by @fontawesome - https://fontawesome.com License - https://fontawesome.com/license (Commercial License) Copyright 2025 Fonticons, Inc. --><path fill="currentColor" d="M207.4 82.8C219.4 70.8 235.7 64.1 252.7 64.1L388.3 64.1C405.3 64.1 421.6 70.8 433.6 82.8L557.6 207C569.6 219 576.3 235.3 576.3 252.3L576.3 387.9C576.3 404.9 569.6 421.2 557.6 433.2L433.5 557.2C421.5 569.2 405.2 575.9 388.2 575.9L252.6 575.9C235.6 575.9 219.3 569.2 207.3 557.2L83.2 433C71.2 421 64.5 404.8 64.5 387.8L64.5 252.2C64.5 235.2 71.2 218.9 83.2 206.9L207.4 82.8zM404.8 276.7C411.8 265.5 408.4 250.7 397.2 243.6C386 236.5 371.2 240 364.1 251.2L302.7 349.5L275.7 313.5C267.7 302.9 252.7 300.7 242.1 308.7C231.5 316.7 229.3 331.7 237.3 342.3L285.3 406.3C290 412.6 297.6 416.2 305.5 415.9C313.4 415.6 320.6 411.3 324.8 404.6L404.8 276.6z"/></svg>