<svg xmlns="http://www.w3.org/2000/svg" viewBox="0 0 640 640"><!--! Font Awesome Pro 7.0.0 by @fontawesome - https://fontawesome.com License - https://fontawesome.com/license (Commercial License) Copyright 2025 Fonticons, Inc. --><path fill="currentColor" d="M207.4 82.8C219.4 70.8 235.7 64.1 252.7 64.1L388.3 64.1C405.3 64.1 421.6 70.8 433.6 82.8L557.6 207C569.6 219 576.3 235.3 576.3 252.3L576.3 387.9C576.3 404.9 569.6 421.2 557.6 433.2L433.5 557.2C421.5 569.2 405.2 575.9 388.2 575.9L252.6 575.9C235.6 575.9 219.3 569.2 207.3 557.2L83.2 433C71.2 421 64.5 404.8 64.5 387.8L64.5 252.2C64.5 235.2 71.2 218.9 83.2 206.9L207.4 82.8zM320.4 200C307.1 200 296.4 210.7 296.4 224L296.4 336C296.4 349.3 307.1 360 320.4 360C333.7 360 344.4 349.3 344.4 336L344.4 224C344.4 210.7 333.7 200 320.4 200zM347.1 416C347.7 406.1 342.8 396.7 334.3 391.5C325.8 386.4 315.1 386.4 306.6 391.5C298.1 396.7 293.2 406.1 293.8 416C293.2 425.9 298.1 435.3 306.6 440.5C315.1 445.6 325.8 445.6 334.3 440.5C342.8 435.3 347.7 425.9 347.1 416z"/></svg>