<svg xmlns="http://www.w3.org/2000/svg" viewBox="0 0 640 640"><!--! Font Awesome Pro 7.0.0 by @fontawesome - https://fontawesome.com License - https://fontawesome.com/license (Commercial License) Copyright 2025 Fonticons, Inc. --><path fill="currentColor" d="M288 96C288 78.3 302.3 64 320 64L384 64C401.7 64 416 78.3 416 96C416 113.7 401.7 128 384 128L352 128L352 160L384 160C401.7 160 416 174.3 416 192C416 209.7 401.7 224 384 224L352 224L352 294.7C380.3 307 400 335.2 400 368C400 412.2 364.2 448 320 448C275.8 448 240 412.2 240 368C240 335.2 259.7 307 288 294.7L288 96zM448 368C448 362.7 447.7 357.4 447 352.3C466.9 353.8 486.5 361 503.4 373.7C520.3 386.4 536.3 395.2 551.2 398.3C564.9 401.1 578.6 399.2 593.5 388C604.1 380 619.1 382.1 627.1 392.7C635.1 403.3 633 418.3 622.4 426.3C596 446.2 568.2 450.7 541.7 445.3C516.4 440.2 493.6 426.4 474.5 412C465.2 405 454.6 401.1 443.8 400.2C446.5 389.9 447.9 379.1 447.9 368zM165.4 412.1C141.6 430 111.3 447.6 77.3 447.4C56.9 447.3 36.6 440.7 17.5 426.3C6.9 418.3 4.8 403.3 12.8 392.7C20.8 382.1 35.8 380 46.4 388C57.7 396.5 68 399.4 77.6 399.5C95.2 399.6 114.9 390.1 136.5 373.8C153.4 361 173 353.9 192.9 352.4C192.3 357.5 191.9 362.8 191.9 368.1C191.9 379.2 193.3 390 196 400.3C185.2 401.2 174.6 405.2 165.3 412.1zM403.3 540.1C379.1 558.3 351.1 576 320 576C288.9 576 260.9 558.3 236.6 540.1C215.3 524 186.7 524 165.4 540.1C141.6 558 111.3 575.6 77.3 575.4C56.9 575.3 36.6 568.7 17.5 554.3C6.9 546.3 4.8 531.3 12.8 520.7C20.8 510.1 35.8 508 46.4 516C57.7 524.5 68 527.4 77.6 527.5C95.2 527.6 114.9 518.1 136.5 501.8C174.9 472.8 227 472.8 265.5 501.8C289.5 519.9 306.2 528.1 320 528.1C333.8 528.1 350.5 519.9 374.5 501.8C412.9 472.8 465 472.8 503.5 501.8C520.4 514.5 536.4 523.3 551.3 526.4C565 529.2 578.7 527.3 593.6 516.1C604.2 508.1 619.2 510.2 627.2 520.8C635.2 531.4 633.1 546.4 622.5 554.4C596.1 574.3 568.3 578.8 541.8 573.4C516.5 568.3 493.7 554.5 474.6 540.1C453.3 524 424.7 524 403.4 540.1z"/></svg>