<svg xmlns="http://www.w3.org/2000/svg" viewBox="0 0 640 640"><!--! Font Awesome Pro 7.0.0 by @fontawesome - https://fontawesome.com License - https://fontawesome.com/license (Commercial License) Copyright 2025 Fonticons, Inc. --><path fill="currentColor" d="M485.6 64.5C503 67.6 514.6 84.2 511.5 101.6L431.5 549.6C428.4 567 411.8 578.6 394.4 575.5C377 572.4 365.4 555.8 368.5 538.4L448.5 90.4C451.6 73 468.2 61.4 485.6 64.5zM80 237.5C80 177 129 128 189.5 128L288 128C305.7 128 320 142.3 320 160C320 177.7 305.7 192 288 192L189.5 192C164.4 192 144 212.4 144 237.5C144 260 160.4 279.1 182.6 282.5L259.2 294.3C312.6 302.5 352 348.5 352 402.5C352 463 303 512 242.5 512L128 512C110.3 512 96 497.7 96 480C96 462.3 110.3 448 128 448L242.5 448C267.6 448 288 427.6 288 402.5C288 380 271.6 360.9 249.4 357.5L172.8 345.7C119.4 337.5 80 291.6 80 237.5zM544 440C566.1 440 584 457.9 584 480C584 502.1 566.1 520 544 520C521.9 520 504 502.1 504 480C504 457.9 521.9 440 544 440z"/></svg>