<svg xmlns="http://www.w3.org/2000/svg" viewBox="0 0 640 640"><!--! Font Awesome Pro 7.0.0 by @fontawesome - https://fontawesome.com License - https://fontawesome.com/license (Commercial License) Copyright 2025 Fonticons, Inc. --><path fill="currentColor" d="M576 128C611.3 128 640 156.7 640 192L640 448C640 483.3 611.3 512 576 512L64 512C28.7 512 0 483.3 0 448L0 192C0 156.7 28.7 128 64 128L576 128zM88 236C77 236 68 245 68 256L68 384L68.4 388C70.3 397.1 78.3 404 88 404L128 404C156.7 404 180 380.7 180 352C180 337.5 174 324.3 164.4 314.9C169.2 307 172 297.9 172 288C172 259.3 148.7 236 120 236L88 236zM232 236C222.3 236 214.3 242.9 212.4 252L212 256L212 384C212 395 221 404 232 404L296 404C307 404 316 395 316 384C316 373 307 364 296 364L252 364L252 340L280 340C291 340 300 331 300 320C300 309 291 300 280 300L252 300L252 276L296 276C307 276 316 267 316 256C316 245 307 236 296 236L232 236zM360 236C349 236 340 245 340 256C340 267 349 276 360 276L372 276L372 384C372 395 381 404 392 404C403 404 412 395 412 384L412 276L424 276C435 276 444 267 444 256C444 245 435 236 424 236L360 236zM512 236C487.7 236 468 255.7 468 280L468 384C468 395 477 404 488 404C499 404 508 395 508 384L508 356L532 356L532 384C532 395 541 404 552 404C563 404 572 395 572 384L572 280C572 255.7 552.3 236 528 236L512 236zM128 340C134.6 340 140 345.4 140 352C140 358.6 134.6 364 128 364L108 364L108 340L128 340zM528 276C530.2 276 532 277.8 532 280L532 316L508 316L508 280C508 277.8 509.8 276 512 276L528 276zM120 276C126.6 276 132 281.4 132 288C132 294.6 126.6 300 120 300L108 300L108 276L120 276z"/></svg>