<svg xmlns="http://www.w3.org/2000/svg" viewBox="0 0 640 640"><!--! Font Awesome Pro 7.0.0 by @fontawesome - https://fontawesome.com License - https://fontawesome.com/license (Commercial License) Copyright 2025 Fonticons, Inc. --><path fill="currentColor" d="M129.9 292.5C143.2 199.5 223.3 128 320 128C373 128 421 149.5 455.8 184.2C456 184.4 456.2 184.6 456.4 184.8L464 192L432.1 192C414.4 192 400.1 206.3 400.1 224C400.1 241.7 414.4 256 432.1 256L544.1 256C561.8 256 576.1 241.7 576.1 224L576.1 96C576.1 78.3 561.8 64 544.1 64C526.4 64 512.1 78.3 512.1 96L512.1 149.4L500.8 138.7C454.5 92.6 390.5 64 320 64C191 64 84.3 159.4 66.6 283.5C64.1 301 76.2 317.2 93.7 319.7C111.2 322.2 127.4 310 129.9 292.6zM573.4 356.5C575.9 339 563.7 322.8 546.3 320.3C528.9 317.8 512.6 330 510.1 347.4C496.8 440.4 416.7 511.9 320 511.9C267 511.9 219 490.4 184.2 455.7C184 455.5 183.8 455.3 183.6 455.1L176 447.9L207.9 447.9C225.6 447.9 239.9 433.6 239.9 415.9C239.9 398.2 225.6 383.9 207.9 383.9L96 384C87.5 384 79.3 387.4 73.3 393.5C67.3 399.6 63.9 407.7 64 416.3L65 543.3C65.1 561 79.6 575.2 97.3 575C115 574.8 129.2 560.4 129 542.7L128.6 491.2L139.3 501.3C185.6 547.4 249.5 576 320 576C449 576 555.7 480.6 573.4 356.5zM320 200C306.7 200 296 210.7 296 224L296 336C296 349.3 306.7 360 320 360C333.3 360 344 349.3 344 336L344 224C344 210.7 333.3 200 320 200zM346.7 416C347.3 406.1 342.4 396.7 333.9 391.5C325.4 386.4 314.7 386.4 306.2 391.5C297.7 396.7 292.8 406.1 293.4 416C292.8 425.9 297.7 435.3 306.2 440.5C314.7 445.6 325.4 445.6 333.9 440.5C342.4 435.3 347.3 425.9 346.7 416z"/></svg>