<svg xmlns="http://www.w3.org/2000/svg" viewBox="0 0 640 640"><!--! Font Awesome Pro 7.0.0 by @fontawesome - https://fontawesome.com License - https://fontawesome.com/license (Commercial License) Copyright 2025 Fonticons, Inc. --><path fill="currentColor" d="M333.4 66.9C329.2 65 324.7 64 320 64C315.3 64 310.8 65 306.6 66.9L118.3 146.8C96.3 156.1 79.9 177.8 80 204C80.5 303.2 121.3 484.7 293.6 567.2C310.3 575.2 329.7 575.2 346.4 567.2C518.8 484.7 559.6 303.2 560 204C560.1 177.8 543.7 156.1 521.7 146.8L333.4 66.9zM404.4 260.7L324.4 388.7C320.2 395.4 313 399.6 305.1 400C297.2 400.4 289.6 396.8 284.9 390.4L236.9 326.4C228.9 315.8 231.1 300.8 241.7 292.8C252.3 284.8 267.3 287 275.3 297.6L302.3 333.6L363.7 235.3C370.7 224.1 385.5 220.6 396.8 227.7C408.1 234.8 411.5 249.5 404.4 260.8z"/></svg>