<svg xmlns="http://www.w3.org/2000/svg" viewBox="0 0 640 640"><!--! Font Awesome Pro 7.0.0 by @fontawesome - https://fontawesome.com License - https://fontawesome.com/license (Commercial License) Copyright 2025 Fonticons, Inc. --><path fill="currentColor" d="M333.4 66.9C329.2 65 324.7 64 320 64C315.3 64 310.8 65 306.6 66.9L118.3 146.8C96.3 156.1 79.9 177.8 80 204C80.5 303.2 121.3 484.7 293.6 567.2C310.3 575.2 329.7 575.2 346.4 567.2C518.8 484.7 559.6 303.2 560 204C560.1 177.8 543.7 156.1 521.7 146.8L333.4 66.9zM320 184C333.3 184 344 194.7 344 208L344 320C344 333.3 333.3 344 320 344C306.7 344 296 333.3 296 320L296 208C296 194.7 306.7 184 320 184zM293.4 400C292.8 390.1 297.7 380.7 306.2 375.5C314.7 370.4 325.4 370.4 333.9 375.5C342.4 380.7 347.3 390.1 346.7 400C347.3 409.9 342.4 419.3 333.9 424.5C325.4 429.6 314.7 429.6 306.2 424.5C297.7 419.3 292.8 409.9 293.4 400z"/></svg>