<svg xmlns="http://www.w3.org/2000/svg" viewBox="0 0 640 640"><!--! Font Awesome Pro 7.0.0 by @fontawesome - https://fontawesome.com License - https://fontawesome.com/license (Commercial License) Copyright 2025 Fonticons, Inc. --><path fill="currentColor" d="M320.1 32C329.1 32 337.4 37.1 341.5 45.1L415 189.3L574.9 214.7C583.8 216.1 591.2 222.4 594 231C596.8 239.6 594.5 249 588.2 255.4L473.7 369.9L499 529.8C500.4 538.7 496.7 547.7 489.4 553C482.1 558.3 472.4 559.1 464.4 555L320.1 481.6L175.8 555C167.8 559.1 158.1 558.3 150.8 553C143.5 547.7 139.8 538.8 141.2 529.8L166.4 369.9L52 255.4C45.6 249 43.4 239.6 46.2 231C49 222.4 56.3 216.1 65.3 214.7L225.2 189.3L298.8 45.1C302.9 37.1 311.2 32 320.2 32zM320.1 192C306.8 192 296.1 202.7 296.1 216L296.1 328C296.1 341.3 306.8 352 320.1 352C333.4 352 344.1 341.3 344.1 328L344.1 216C344.1 202.7 333.4 192 320.1 192zM346.8 408C347.4 398.1 342.5 388.7 334 383.5C325.5 378.4 314.8 378.4 306.3 383.5C297.8 388.7 292.9 398.1 293.5 408C292.9 417.9 297.8 427.3 306.3 432.5C314.8 437.6 325.5 437.6 334 432.5C342.5 427.3 347.4 417.9 346.8 408z"/></svg>