<svg xmlns="http://www.w3.org/2000/svg" viewBox="0 0 640 640"><!--! Font Awesome Pro 7.0.0 by @fontawesome - https://fontawesome.com License - https://fontawesome.com/license (Commercial License) Copyright 2025 Fonticons, Inc. --><path fill="currentColor" d="M32 120C32 106.7 42.7 96 56 96L296 96C309.3 96 320 106.7 320 120C320 133.3 309.3 144 296 144L56 144C42.7 144 32 133.3 32 120zM32 240C32 213.5 53.5 192 80 192L560 192C586.5 192 608 213.5 608 240L608 304C608 330.5 586.5 352 560 352L465.9 352C464.5 353.6 462.8 355 461 356.2L364.4 418.3L420.4 454.3C428.8 450.3 438.1 448 448.1 448C483.4 448 512.1 476.7 512.1 512C512.1 547.3 483.4 576 448.1 576C412.8 576 384.1 547.3 384.1 512C384.1 504.4 385.4 497.1 387.8 490.4L320.1 446.8L252.4 490.4C254.8 497.2 256.1 504.4 256.1 512C256.1 547.3 227.4 576 192.1 576C156.8 576 128.1 547.3 128.1 512C128.1 476.7 156.8 448 192.1 448C202 448 211.4 450.2 219.7 454.3L275.7 418.3L179.1 356.2C177.2 355 175.6 353.6 174.2 352L80 352C53.5 352 32 330.5 32 304L32 240zM320 389.8L378.7 352L261.2 352L319.9 389.8z"/></svg>