<svg xmlns="http://www.w3.org/2000/svg" viewBox="0 0 640 640"><!--! Font Awesome Pro 7.0.0 by @fontawesome - https://fontawesome.com License - https://fontawesome.com/license (Commercial License) Copyright 2025 Fonticons, Inc. --><path fill="currentColor" d="M369.2 130.8C375 119.1 382.3 107.1 391.1 96L160 96C107 96 64 182 64 288L64 552C64 582.9 89.1 608 120 608L280 608C310.9 608 336 582.9 336 552L336 288C336 229.1 347.8 173.5 369.2 130.8zM576 288C576 182 533 96 480 96C427 96 384 182 384 288C384 394 427 480 480 480C533 480 576 394 576 288zM512 288C512 323.3 497.7 352 480 352C462.3 352 448 323.3 448 288C448 252.7 462.3 224 480 224C497.7 224 512 252.7 512 288zM284.4 228.7L204.4 356.7C200.2 363.4 193 367.6 185.1 368C177.2 368.4 169.6 364.8 164.9 358.4L116.9 294.4C108.9 283.8 111.1 268.8 121.7 260.8C132.3 252.8 147.3 255 155.3 265.6L182.3 301.6L243.7 203.3C250.7 192.1 265.5 188.6 276.8 195.7C288.1 202.8 291.5 217.5 284.4 228.8z"/></svg>