<svg xmlns="http://www.w3.org/2000/svg" viewBox="0 0 640 640"><!--! Font Awesome Pro 7.0.0 by @fontawesome - https://fontawesome.com License - https://fontawesome.com/license (Commercial License) Copyright 2025 Fonticons, Inc. --><path fill="currentColor" d="M263.1 48L377 48C390.8 48 403 56.8 407.4 69.9L416 96L512 96C529.7 96 544 110.3 544 128C544 145.7 529.7 160 512 160L128 160C110.3 160 96 145.7 96 128C96 110.3 110.3 96 128 96L224 96L232.7 69.9C237.1 56.8 249.3 48 263.1 48zM128 208L512 208L512 512C512 547.3 483.3 576 448 576L192 576C156.7 576 128 547.3 128 512L128 208zM404.4 324.7C411.4 313.5 408 298.7 396.8 291.6C385.6 284.5 370.8 288 363.7 299.2L302.3 397.5L275.3 361.5C267.3 350.9 252.3 348.7 241.7 356.7C231.1 364.7 228.9 379.7 236.9 390.3L284.9 454.3C289.6 460.6 297.2 464.2 305.1 463.9C313 463.6 320.2 459.4 324.4 452.6L404.4 324.6z"/></svg>