<svg xmlns="http://www.w3.org/2000/svg" viewBox="0 0 640 640"><!--! Font Awesome Pro 7.0.0 by @fontawesome - https://fontawesome.com License - https://fontawesome.com/license (Commercial License) Copyright 2025 Fonticons, Inc. --><path fill="currentColor" d="M439.8 448C399.3 506 332.1 544 256 544C132.3 544 32 443.7 32 320C32 196.3 132.3 96 256 96C374.3 96 471.2 187.8 479.4 304L408 304C368.2 304 336 336.2 336 376C336 415.8 368.2 448 408 448L439.8 448zM280 224C280 210.7 269.3 200 256 200C242.7 200 232 210.7 232 224L232 336C232 349.3 242.7 360 256 360C269.3 360 280 349.3 280 336L280 224zM256 442.7C265.9 443.3 275.3 438.4 280.5 429.9C285.6 421.4 285.6 410.7 280.5 402.2C275.3 393.7 265.9 388.8 256 389.4C246.1 388.8 236.7 393.7 231.5 402.2C226.4 410.7 226.4 421.4 231.5 429.9C236.7 438.4 246.1 443.3 256 442.7zM480 504C480 490.7 490.7 480 504 480L520 480C542.1 480 560 462.1 560 440C560 417.9 542.1 400 520 400L408 400C394.7 400 384 389.3 384 376C384 362.7 394.7 352 408 352L520 352C568.6 352 608 391.4 608 440C608 488.6 568.6 528 520 528L504 528C490.7 528 480 517.3 480 504zM526.1 288C524.2 271.5 520.8 255.5 516 240L552 240C574.1 240 592 222.1 592 200C592 177.9 574.1 160 552 160L536 160C522.7 160 512 149.3 512 136C512 122.7 522.7 112 536 112L552 112C600.6 112 640 151.4 640 200C640 248.6 600.6 288 552 288L526.1 288z"/></svg>