<?xml version="1.0" encoding="UTF-8" standalone="no"?>
<!DOCTYPE svg PUBLIC "-//W3C//DTD SVG 1.1//EN" "http://www.w3.org/Graphics/SVG/1.1/DTD/svg11.dtd">
<!-- Created with Vectornator (http://vectornator.io/) -->
<svg height="100%" stroke-miterlimit="10" style="fill-rule:nonzero;clip-rule:evenodd;stroke-linecap:round;stroke-linejoin:round;" version="1.1" viewBox="0 0 294.585 343.205" width="100%" xml:space="preserve" xmlns="http://www.w3.org/2000/svg" xmlns:xlink="http://www.w3.org/1999/xlink">
<defs/>
<clipPath id="ArtboardFrame">
<rect height="343.205" width="294.585" x="0" y="0"/>
</clipPath>
<g clip-path="url(#ArtboardFrame)" id="Layer-1">
<g opacity="1">
<path d="M190.02 322.112C184.433 321.506 178.856 320.588 173.254 320.387C168.152 320.204 163.025 320.929 157.905 321.018C150.583 321.146 143.254 320.928 135.934 321.1C128.978 321.263 122.03 321.737 114.517 321.638C114.503 312.853 113.149 305.166 108.136 298.024C101.453 288.502 95.5886 278.409 89.1216 268.729C81.8272 257.811 74.4071 246.968 66.7467 236.305C61.9026 229.562 55.5345 226.51 47.2744 230.445C45.9708 218.219 50.4247 207.089 54.6953 196.197C61.978 177.622 70.8661 159.778 82.7726 143.596C88.4506 135.88 94.3815 128.293 99.3616 120.137C103.036 114.119 104.062 107.206 102.392 99.9505C101.399 95.6353 101.32 91.0706 101.174 86.6068C100.727 72.9917 99.8436 59.3508 100.3 45.7593C100.643 35.5184 102.672 25.3885 109.622 16.9338C117.136 7.79367 127.431 3.92272 138.299 1.29952C153.806-2.44348 167.984 2.34791 181.137 9.94129C192.095 16.2676 197.296 27.3312 200.968 38.8904C204.028 48.5256 205.033 58.2755 204.449 68.6896C203.422 87.0132 209.656 104.103 219.254 119.581C228.775 134.932 239.563 149.497 249.103 164.837C257.392 178.165 263.375 192.743 265.748 208.296C267.379 218.991 266.25 229.866 261.753 240.634C257.222 242.161 253.139 243.227 248.791 244.073C243.916 237.119 236.493 237.097 229.702 235.559C231.818 230.114 234.277 225.144 235.679 219.891C240.501 201.829 239.697 184.864 224.623 171.256C223.395 170.147 221.991 169.233 220.668 168.229C220.327 168.511 219.986 168.792 219.645 169.074C227.582 178.557 233.078 188.985 231.77 201.619C230.506 213.816 225.402 224.282 215.948 234.008C216.1 231.145 216.223 229.557 216.264 227.966C216.711 210.418 215.939 192.986 209.245 176.462C199.279 151.857 189.037 127.364 178.965 102.428C180.188 91.328 180.188 91.328 172.321 86.8931C179.745 77.9323 180.724 68.2856 176.441 58.1133C173.988 52.2889 169.918 47.9254 162.992 47.865C155.81 47.8024 151.852 52.4131 149.13 58.3103C146.049 64.9858 146.499 71.9096 147.83 78.8299C142.307 78.2434 137.177 77.6723 132.068 76.6879C133.303 70.0562 132.869 64.0141 129.878 58.3424C127.845 54.4879 124.968 51.4135 120.252 51.5274C115.789 51.6351 113.107 54.6582 111.097 58.315C106.157 67.3066 107.491 78.2655 114.385 87.4128C112.918 88.7704 111.63 89.8142 110.37 90.8917C103.907 96.4227 103.748 102.25 109.901 108.206C110.853 109.127 111.851 110.002 112.729 111.368C112.249 116.806 112.349 121.87 111.398 126.728C108.509 141.501 101.796 154.729 92.9946 166.719C83.4055 179.782 77.9187 194.309 74.9971 210.022C74.4323 213.059 73.846 216.093 73.2695 219.128C72.841 219.088 72.4125 219.048 71.9839 219.008C71.6626 216.236 70.6698 213.346 71.1369 210.714C73.1028 199.638 75.5046 188.639 77.8827 177.374C77.9566 176.877 77.8948 176.619 77.8329 176.361C77.5746 176.585 77.3163 176.809 76.7269 177.173C70.3071 188.264 66.9243 199.781 65.6846 212.457C64.8081 221.419 66.5038 228.015 72.9873 233.695C82.6191 242.134 92.27 250.551 101.962 258.921C105.612 262.074 109.599 264.86 113.081 268.182C119.82 274.613 118.318 282.292 109.87 285.766C108.656 286.265 107.449 286.78 105.642 287.537C120.01 301.25 136.698 305.836 155.493 302.579C169.84 300.094 182.346 293.133 194.109 285.162C192.776 297.777 191.398 309.944 190.02 322.112M219.288 169.034C219.786 169.022 220.284 169.011 220.782 168.999C220.509 168.526 220.236 168.054 219.618 167.124C219.291 166.929 218.964 166.735 218.137 166.124C217.773 166.219 217.409 166.314 217.045 166.41C217.329 166.69 217.612 166.971 218.018 167.755C218.304 167.93 218.59 168.105 219.288 169.034Z" fill="#273339" fill-rule="nonzero" opacity="1" stroke="none"/>
<path d="M47.0657 230.69C55.5357 226.51 61.9039 229.562 66.7481 236.305C74.4087 246.968 81.8289 257.811 89.1235 268.729C95.5906 278.409 101.455 288.502 108.138 298.024C113.152 305.166 114.505 312.853 114.088 321.647C113.075 335.185 104.661 342.705 91.8408 343.177C80.9649 343.578 71.78 338.41 61.8856 335.512C49.5181 331.89 37.0651 328.56 24.6619 325.059C19.3941 323.571 14.0091 322.345 8.94245 320.333C0.109483 316.825-1.9784 310.939 1.79031 301.847C1.85124 301.7 1.92291 301.551 2.02046 301.427C9.33844 292.127 7.2316 282.066 3.62699 272.373C-0.614005 260.969 4.24198 257.697 13.632 256.351C25.1136 254.704 33.2109 249.526 39.0656 239.764C41.0506 236.454 44.2251 233.857 47.0657 230.69Z" fill="#ffc107" fill-rule="nonzero" opacity="1" stroke="none"/>
<path d="M190.063 322.517C191.402 309.944 192.78 297.777 194.212 284.783C194.555 282.163 195.032 280.375 195.101 278.572C195.468 269.11 195.688 259.643 196.047 250.181C196.237 245.198 197.308 240.332 202.15 237.887C206.937 235.47 211.147 237.746 215.116 241.088C216.37 244.868 218.371 248.407 218.294 251.901C218.184 256.843 220.381 259.013 224.536 260.005C231.383 261.64 238.696 258.66 242.928 252.738C244.951 249.908 247.015 247.107 249.06 244.294C253.144 243.227 257.227 242.161 261.708 241.003C267.189 243.941 268.686 249.294 268.872 254.313C269.369 267.735 277.213 274.967 288.329 280.14C294.312 282.924 296.205 287.214 293.13 292.322C291.291 295.377 288.268 298.019 285.223 299.994C271.55 308.862 257.572 317.26 243.937 326.185C239.052 329.382 235.266 334.392 230.205 337.161C219.781 342.865 208.76 342.837 198.025 337.506C192.095 334.56 191.103 328.679 190.063 322.517Z" fill="#ffc107" fill-rule="nonzero" opacity="1" stroke="none"/>
<path d="M214.934 240.828C211.147 237.746 206.937 235.47 202.15 237.887C197.308 240.332 196.237 245.198 196.047 250.181C195.688 259.643 195.468 269.11 195.101 278.572C195.032 280.375 194.555 282.163 194.168 284.336C182.35 293.133 169.843 300.094 155.496 302.579C136.701 305.836 120.013 301.25 105.644 287.537C107.451 286.78 108.658 286.265 109.872 285.766C118.321 282.292 119.823 274.613 113.083 268.182C109.601 264.86 105.614 262.074 101.964 258.921C92.2719 250.551 82.6208 242.134 72.9888 233.695C66.5052 228.015 64.8094 221.419 65.686 212.457C66.9257 199.781 70.3086 188.264 76.8937 177.326C77.3901 177.339 77.7486 177.612 77.7486 177.612C75.5062 188.639 73.1043 199.638 71.1383 210.714C70.6713 213.346 71.6641 216.236 71.9854 219.008C72.4139 219.048 72.8425 219.088 73.2711 219.128C73.8475 216.093 74.4338 213.059 74.9986 210.022C77.9203 194.309 83.4072 179.782 92.9965 166.719C101.798 154.729 108.512 141.501 111.401 126.728C112.351 121.87 112.252 116.806 113.02 111.485C116.151 113.537 119.08 115.762 121.592 118.386C125.302 122.262 129.788 123.619 134.981 124.01C141.72 124.516 147.786 122.965 153.61 119.684C159.105 116.587 164.949 114.071 170.267 110.71C173.514 108.657 176.057 105.49 178.916 102.823C189.041 127.364 199.283 151.857 209.249 176.462C215.943 192.986 216.716 210.418 216.268 227.966C216.228 229.557 216.105 231.145 215.952 234.008C225.406 224.282 230.511 213.816 231.774 201.619C233.083 188.985 227.587 178.557 219.65 169.074C219.991 168.792 220.332 168.511 220.673 168.229C221.995 169.233 223.4 170.147 224.628 171.256C239.702 184.864 240.506 201.829 235.684 219.891C234.282 225.144 231.823 230.114 229.302 235.567C223.555 235.887 218.595 236.529 214.934 240.828Z" fill="#ebeef0" fill-rule="nonzero" opacity="1" stroke="none"/>
<path d="M178.965 102.428C176.053 105.49 173.51 108.657 170.263 110.71C164.946 114.071 159.102 116.587 153.606 119.684C147.783 122.965 141.717 124.516 134.979 124.01C129.785 123.619 125.3 122.262 121.59 118.386C119.078 115.762 116.148 113.537 113.116 111.016C111.851 110.002 110.853 109.127 109.901 108.206C103.748 102.25 103.907 96.4227 110.37 90.8917C111.63 89.8142 112.918 88.7704 114.658 87.2709C116.559 85.6086 117.994 84.3866 119.742 83.0674C122.33 81.6329 124.606 80.2954 127.23 78.9449C129.068 78.3217 130.557 77.7114 132.047 77.1012C137.177 77.6723 142.307 78.2434 148.181 78.9631C150.834 79.7699 152.743 80.4282 154.922 81.2606C158.247 82.6736 161.303 83.9126 164.626 85.3793C167.3 86.1252 169.706 86.6433 172.111 87.1613C180.188 91.328 180.188 91.328 178.965 102.428M144.249 109.876C154.258 105.685 163.794 100.691 172.089 93.3292C169.573 93.1831 167.348 93.7584 165.343 94.7708C158.236 98.3594 151.394 102.538 144.1 105.672C133.968 110.025 124.007 109.001 114.713 102.778C113.566 102.01 112.195 101.579 110.927 100.992C119.552 112.433 130.829 113.944 144.249 109.876Z" fill="#fcbf09" fill-rule="nonzero" opacity="1" stroke="none"/>
<path d="M154.656 81.0865C152.746 80.4282 150.837 79.7699 148.576 78.9785C146.502 71.9096 146.052 64.9858 149.133 58.3103C151.855 52.4131 155.813 47.8024 162.995 47.865C169.922 47.9254 173.992 52.2889 176.444 58.1133C180.728 68.2856 179.749 77.9323 172.324 86.8931C169.709 86.6433 167.304 86.1252 164.904 85.2014C171.055 80.4415 173.433 73.1983 169.795 66.9926C168.262 64.3794 164.915 61.9576 161.966 61.2613C157.958 60.3151 155.345 63.5946 153.799 67.1718C151.746 71.9234 152.338 76.573 154.656 81.0865Z" fill="#e7eaeb" fill-rule="nonzero" opacity="1" stroke="none"/>
<path d="M215.116 241.088C218.595 236.529 223.555 235.887 229.16 235.912C236.498 237.097 243.921 237.119 248.796 244.073C247.015 247.107 244.951 249.908 242.928 252.738C238.696 258.66 231.383 261.64 224.536 260.005C220.381 259.013 218.184 256.843 218.294 251.901C218.371 248.407 216.37 244.868 215.116 241.088Z" fill="#475b63" fill-rule="nonzero" opacity="1" stroke="none"/>
<path d="M119.432 83.1645C117.996 84.3866 116.561 85.6086 114.853 86.9725C107.493 78.2655 106.159 67.3066 111.1 58.315C113.109 54.6582 115.791 51.6351 120.254 51.5274C124.97 51.4135 127.848 54.4879 129.881 58.3424C132.872 64.0141 133.305 70.0562 132.071 76.6879C130.56 77.7114 129.07 78.3217 127.294 78.5016C126.197 73.4433 125.707 68.7208 124.383 64.2444C123.981 62.884 121.097 61.2046 119.683 61.4667C117.973 61.7835 115.871 63.7349 115.24 65.456C112.794 72.1235 114.148 78.1813 119.432 83.1645Z" fill="#e4e7e8" fill-rule="nonzero" opacity="1" stroke="none"/>
<path d="M217.9 167.251C217.617 166.971 217.333 166.69 217.05 166.41C217.414 166.314 217.778 166.219 218.205 166.508C218.145 167.012 218.022 167.132 217.9 167.251Z" fill="#ebeef0" fill-rule="nonzero" opacity="1" stroke="none"/>
<path d="M218.454 166.716C218.968 166.735 219.296 166.929 219.519 167.52C219.237 168.038 219.059 168.159 218.881 168.28C218.595 168.105 218.309 167.93 217.961 167.503C218.022 167.132 218.145 167.012 218.454 166.716Z" fill="#ebeef0" fill-rule="nonzero" opacity="1" stroke="none"/>
<path d="M219.691 167.749C220.24 168.054 220.513 168.526 220.786 168.999C220.288 169.011 219.79 169.022 219.086 168.657C219.059 168.159 219.237 168.038 219.691 167.749Z" fill="#ebeef0" fill-rule="nonzero" opacity="1" stroke="none"/>
<path d="M77.2249 177.186C77.3179 176.809 77.5762 176.585 77.8345 176.361C77.8964 176.619 77.9582 176.877 77.8843 177.374C77.7486 177.612 77.3901 177.339 77.2249 177.186Z" fill="#ebeef0" fill-rule="nonzero" opacity="1" stroke="none"/>
<path d="M154.926 81.2606C152.338 76.573 151.746 71.9234 153.799 67.1718C155.345 63.5946 157.958 60.3151 161.966 61.2613C164.915 61.9576 168.262 64.3794 169.795 66.9926C173.433 73.1983 171.055 80.4415 164.635 84.9735C161.306 83.9126 158.251 82.6736 154.926 81.2606Z" fill="#272626" fill-rule="nonzero" opacity="1" stroke="none"/>
<path d="M143.867 109.989C130.832 113.944 119.555 112.433 110.93 100.992C112.197 101.579 113.569 102.01 114.715 102.778C124.009 109.001 133.971 110.025 144.103 105.672C151.398 102.538 158.24 98.3594 165.346 94.7708C167.351 93.7584 169.577 93.1831 172.093 93.3292C163.797 100.691 154.261 105.685 143.867 109.989Z" fill="#6f5103" fill-rule="nonzero" opacity="1" stroke="none"/>
<path d="M119.744 83.0674C114.148 78.1813 112.794 72.1235 115.24 65.456C115.871 63.7349 117.973 61.7835 119.683 61.4667C121.097 61.2046 123.981 62.884 124.383 64.2444C125.707 68.7208 126.197 73.4433 126.946 78.5146C124.609 80.2954 122.333 81.6329 119.744 83.0674Z" fill="#262625" fill-rule="nonzero" opacity="1" stroke="none"/>
</g>
</g>
</svg>
