<svg height="512" viewBox="0 0 152 152" width="512" xmlns="http://www.w3.org/2000/svg"><g id="Layer_2" data-name="Layer 2"><g id="_41.argentina" data-name="41.argentina"><path id="path" d="m124.81 149.4a459 459 0 0 1 -97.62 0 27.69 27.69 0 0 1 -24.59-24.59 459 459 0 0 1 0-97.62 27.69 27.69 0 0 1 24.59-24.59 459 459 0 0 1 97.62 0 27.69 27.69 0 0 1 24.59 24.59 459 459 0 0 1 0 97.62 27.69 27.69 0 0 1 -24.59 24.59z" fill="#4cc1ff"/><path d="m150.45 113.75h-148.9a459.61 459.61 0 0 1 0-75.49h148.9a459.61 459.61 0 0 1 0 75.49z" fill="#f0f9ff"/><path d="m96 74.15a1 1 0 0 1 -.6-.77 1 1 0 0 1 .35-.91 5 5 0 0 0 -4-8.79 1 1 0 0 1 -.92-.34.94.94 0 0 1 -.2-1 5 5 0 0 0 -8.13-5.23 1 1 0 0 1 -1 .22.94.94 0 0 1 -.68-.7 5 5 0 0 0 -9.67 0 1 1 0 0 1 -1.63.48 5 5 0 0 0 -8.14 5.23 1 1 0 0 1 -1.11 1.29 5 5 0 0 0 -4 8.79 1 1 0 0 1 -.27 1.73 5 5 0 0 0 1.37 9.58 1 1 0 0 1 .79.57.94.94 0 0 1 -.08 1 5 5 0 0 0 6.33 7.31 1 1 0 0 1 1.43.92 5 5 0 0 0 9.28 2.73 1 1 0 0 1 .85-.48.94.94 0 0 1 .85.48 5 5 0 0 0 4.27 2.39 4.87 4.87 0 0 0 1.41-.21 5 5 0 0 0 3.6-4.91 1 1 0 0 1 1.43-.92 5 5 0 0 0 6.33-7.31 1 1 0 0 1 -.08-1 1 1 0 0 1 .79-.57 5 5 0 0 0 1.43-9.58z" fill="#ffcb24"/></g></g></svg>