<svg height="512" viewBox="0 0 152 152" width="512" xmlns="http://www.w3.org/2000/svg"><g id="Layer_2" data-name="Layer 2"><g id="_46.canada" data-name="46.canada"><path id="path" d="m124.81 149.4a459 459 0 0 1 -97.62 0 27.69 27.69 0 0 1 -24.59-24.59 459 459 0 0 1 0-97.62 27.69 27.69 0 0 1 24.59-24.59 459 459 0 0 1 97.62 0 27.69 27.69 0 0 1 24.59 24.59 459 459 0 0 1 0 97.62 27.69 27.69 0 0 1 -24.59 24.59z" fill="#f40055"/><path d="m117.3 1.86v148.27a459.45 459.45 0 0 1 -82.6 0v-148.27a459.45 459.45 0 0 1 82.6 0z" fill="#f0f9ff"/><path d="m99.88 61.22-5.43-2.52a5 5 0 0 0 -4.74.29l-1.34.83v-2.82a5 5 0 0 0 -2-4l-7.37-5.46a5 5 0 0 0 -6 0l-7.35 5.46a5 5 0 0 0 -2 4v2.78l-1.36-.78a5 5 0 0 0 -4.74-.29l-5.43 2.52a5 5 0 0 0 -2.9 4.62l.19 12.34a5 5 0 0 0 2.59 4.29l11.4 6.31v2.33a5 5 0 0 0 5 5h2.6v4.31a5 5 0 0 0 10 0v-4.3h2.6a5 5 0 0 0 5-5v-2.34l11.4-6.31a5 5 0 0 0 2.58-4.3l.19-12.34a5 5 0 0 0 -2.9-4.62z" fill="#f40055"/></g></g></svg>