<svg height="512" viewBox="0 0 152 152" width="512" xmlns="http://www.w3.org/2000/svg"><g id="Layer_2" data-name="Layer 2"><g id="_44.switzerland" data-name="44.switzerland"><path id="path" d="m124.81 149.4a459 459 0 0 1 -97.62 0 27.69 27.69 0 0 1 -24.59-24.59 459 459 0 0 1 0-97.62 27.69 27.69 0 0 1 24.59-24.59 459 459 0 0 1 97.62 0 27.69 27.69 0 0 1 24.59 24.59 459 459 0 0 1 0 97.62 27.69 27.69 0 0 1 -24.59 24.59z" fill="#f40055"/><path d="m103.55 64.13h-15.68v-15.68a5 5 0 0 0 -5-5h-13.73a5 5 0 0 0 -5 5v15.68h-15.69a5 5 0 0 0 -5 5v13.73a5 5 0 0 0 5 5h15.68v15.68a5 5 0 0 0 5 5h13.73a5 5 0 0 0 5-5v-15.67h15.68a5 5 0 0 0 5-5v-13.73a5 5 0 0 0 -4.99-5.01z" fill="#f0f9ff"/></g></g></svg>