<svg height="512" viewBox="0 0 152 152" width="512" xmlns="http://www.w3.org/2000/svg"><g id="Layer_2" data-name="Layer 2"><g id="_34.china" data-name="34.china"><path id="path" d="m124.81 149.4a459 459 0 0 1 -97.62 0 27.69 27.69 0 0 1 -24.59-24.59 459 459 0 0 1 0-97.62 27.69 27.69 0 0 1 24.59-24.59 459 459 0 0 1 97.62 0 27.69 27.69 0 0 1 24.59 24.59 459 459 0 0 1 0 97.62 27.69 27.69 0 0 1 -24.59 24.59z" fill="#f40055"/><g fill="#ffcb24"><path d="m57.05 34a4.45 4.45 0 0 0 8.84 0 4.45 4.45 0 0 0 0-8.84 4.45 4.45 0 0 0 -8.84 0 4.45 4.45 0 0 0 0 8.84z"/><path d="m65.89 81.42a4.45 4.45 0 0 0 -8.84 0 4.45 4.45 0 0 0 0 8.84 4.45 4.45 0 0 0 8.84 0 4.45 4.45 0 0 0 0-8.84z"/><path d="m68.88 45.82a4.45 4.45 0 0 0 3.92 4.42 4.46 4.46 0 0 0 8.85 0 4.46 4.46 0 0 0 0-8.85 4.46 4.46 0 0 0 -8.85 0 4.46 4.46 0 0 0 -3.92 4.43z"/><path d="m68.88 69.65a4.45 4.45 0 0 0 3.92 4.42 4.46 4.46 0 0 0 8.85 0 4.45 4.45 0 0 0 0-8.84 4.46 4.46 0 0 0 -8.85 0 4.45 4.45 0 0 0 -3.92 4.42z"/><path d="m48.76 58.47 11.37-8.26a2.86 2.86 0 0 0 -1.68-5.21h-14.05a2.86 2.86 0 0 1 -2.72-2l-4.34-13.3a2.86 2.86 0 0 0 -5.44 0l-4.34 13.36a2.87 2.87 0 0 1 -2.72 2h-14a2.86 2.86 0 0 0 -1.68 5.17l11.36 8.26a2.87 2.87 0 0 1 1 3.2l-4.35 13.31a2.86 2.86 0 0 0 4.4 3.19l11.37-8.19a2.85 2.85 0 0 1 3.36 0l11.36 8.25a2.86 2.86 0 0 0 4.41-3.25l-4.34-13.33a2.85 2.85 0 0 1 1-3.2z"/></g></g></g></svg>