<svg height="512" viewBox="0 0 152 152" width="512" xmlns="http://www.w3.org/2000/svg"><g id="Layer_2" data-name="Layer 2"><g id="_23.curacao" data-name="23.curacao"><path id="path" d="m124.81 149.4a459 459 0 0 1 -97.62 0 27.69 27.69 0 0 1 -24.59-24.59 459 459 0 0 1 0-97.62 27.69 27.69 0 0 1 24.59-24.59 459 459 0 0 1 97.62 0 27.69 27.69 0 0 1 24.59 24.59 459 459 0 0 1 0 97.62 27.69 27.69 0 0 1 -24.59 24.59z" fill="#406bd4"/><g fill="#ffcb24"><path d="m150.3 115.61q-.41 4.61-.9 9.21c0 .27-.06.54-.11.81h-146.58c0-.27-.08-.54-.11-.81q-.5-4.6-.9-9.21z"/><path d="m56.5 67.21 12.77-9.28a3.22 3.22 0 0 0 -1.89-5.82h-15.78a3.2 3.2 0 0 1 -3.06-2.22l-4.88-15a3.22 3.22 0 0 0 -6.12 0l-4.87 15a3.21 3.21 0 0 1 -3.06 2.22h-15.79a3.22 3.22 0 0 0 -1.89 5.82l12.77 9.28a3.21 3.21 0 0 1 1.17 3.59l-4.87 15.02a3.22 3.22 0 0 0 5 3.59l12.77-9.28a3.21 3.21 0 0 1 3.78 0l12.77 9.28a3.22 3.22 0 0 0 5-3.59l-4.88-15a3.21 3.21 0 0 1 1.17-3.59z"/><path d="m20.63 25.41a5 5 0 0 0 -9.94 0 5 5 0 0 0 0 9.94 5 5 0 0 0 9.94 0 5 5 0 0 0 0-9.94z"/></g></g></g></svg>