<svg height="512" viewBox="0 0 152 152" width="512" xmlns="http://www.w3.org/2000/svg"><g id="Layer_2" data-name="Layer 2"><g id="_15.czech_republic" data-name="15.czech republic"><path id="path" d="m124.81 149.4a459 459 0 0 1 -97.62 0 27.69 27.69 0 0 1 -24.59-24.59 459 459 0 0 1 0-97.62 27.69 27.69 0 0 1 24.59-24.59 459 459 0 0 1 97.62 0 27.69 27.69 0 0 1 24.59 24.59 459 459 0 0 1 0 97.62 27.69 27.69 0 0 1 -24.59 24.59z" fill="#f0f9ff"/><path d="m152 76a457.88 457.88 0 0 1 -2.6 48.79 27.7 27.7 0 0 1 -24.59 24.59 460.34 460.34 0 0 1 -97.62 0 27.72 27.72 0 0 1 -24.59-24.61 457.88 457.88 0 0 1 -2.6-48.77z" fill="#f40055"/><path d="m81 76a5 5 0 0 1 -1.6 3.67l-67.72 62.79a27.59 27.59 0 0 1 -9.08-17.69 459.08 459.08 0 0 1 0-97.58 27.68 27.68 0 0 1 8.54-17.19l68.24 62.3a5 5 0 0 1 1.62 3.7z" fill="#406bd4"/></g></g></svg>