<svg height="512" viewBox="0 0 152 152" width="512" xmlns="http://www.w3.org/2000/svg"><g id="Layer_2" data-name="Layer 2"><g id="_32.germany" data-name="32.germany"><path id="path" d="m124.81 149.4a459 459 0 0 1 -97.62 0 27.69 27.69 0 0 1 -24.59-24.59 459 459 0 0 1 0-97.62 27.69 27.69 0 0 1 24.59-24.59 459 459 0 0 1 97.62 0 27.69 27.69 0 0 1 24.59 24.59 459 459 0 0 1 0 97.62 27.69 27.69 0 0 1 -24.59 24.59z" fill="#f40055"/><path d="m151.38 52.26h-150.76q.63-12.54 2-25.08a27.68 27.68 0 0 1 24.57-24.58 459 459 0 0 1 97.62 0 27.68 27.68 0 0 1 24.59 24.58q1.33 12.53 1.98 25.08z" fill="#141a1a"/><path d="m151.38 99.73q-.63 12.54-2 25.08a27.68 27.68 0 0 1 -24.59 24.58 459 459 0 0 1 -97.62 0 27.68 27.68 0 0 1 -24.57-24.58q-1.34-12.54-2-25.08z" fill="#ffcb24"/></g></g></svg>