<svg height="512" viewBox="0 0 152 152" width="512" xmlns="http://www.w3.org/2000/svg"><g id="Layer_2" data-name="Layer 2"><g id="_14.denmark" data-name="14.denmark"><path id="path" d="m124.81 149.4a459 459 0 0 1 -97.62 0 27.69 27.69 0 0 1 -24.59-24.59 459 459 0 0 1 0-97.62 27.69 27.69 0 0 1 24.59-24.59 459 459 0 0 1 97.62 0 27.69 27.69 0 0 1 24.59 24.59 459 459 0 0 1 0 97.62 27.69 27.69 0 0 1 -24.59 24.59z" fill="#f40055"/><path d="m54.52 151.48v-80.67h97.48q-.06-5-.22-10h-97.26v-60.3q-5 .23-10 .58v59.7h-44.27q-.16 5-.22 10h44.47v80.1z" fill="#f0f9ff"/></g></g></svg>