<svg height="512" viewBox="0 0 152 152" width="512" xmlns="http://www.w3.org/2000/svg"><g id="Layer_2" data-name="Layer 2"><g id="_12.egypt" data-name="12.egypt"><path id="path" d="m124.81 149.4a459 459 0 0 1 -97.62 0 27.69 27.69 0 0 1 -24.59-24.59 459 459 0 0 1 0-97.62 27.69 27.69 0 0 1 24.59-24.59 459 459 0 0 1 97.62 0 27.69 27.69 0 0 1 24.59 24.59 459 459 0 0 1 0 97.62 27.69 27.69 0 0 1 -24.59 24.59z" fill="#f0f9ff"/><path d="m150.45 38.25h-148.9c.31-3.69.65-7.38 1.05-11.07a27.68 27.68 0 0 1 24.59-24.58 459 459 0 0 1 97.62 0 27.68 27.68 0 0 1 24.59 24.58c.4 3.69.74 7.38 1.05 11.07z" fill="#f40055"/><path d="m150.45 113.74q-.47 5.54-1 11.07a27.68 27.68 0 0 1 -24.59 24.58 459 459 0 0 1 -97.62 0 27.68 27.68 0 0 1 -24.64-24.58q-.59-5.53-1-11.07z" fill="#141a1a"/><path d="m92.6 62.39a9.8 9.8 0 0 0 -8.49-1.77l-3.11.78v-3.19a5 5 0 1 0 -10 0v3.19l-3.1-.78a9.86 9.86 0 0 0 -12.3 9.57v8.39a5 5 0 1 0 10 0v-8.21l5.4 1.37v16a5 5 0 0 0 -2.31 9.61 18.84 18.84 0 0 0 14.64 0 5 5 0 0 0 -2.33-9.64v-16l5.38-1.37v8.21a5 5 0 0 0 10 0v-8.36a9.83 9.83 0 0 0 -3.78-7.8z" fill="#ffcb24"/></g></g></svg>