<svg height="512" viewBox="0 0 152 152" width="512" xmlns="http://www.w3.org/2000/svg"><g id="Layer_2" data-name="Layer 2"><g id="_35.spain" data-name="35.spain"><path id="path" d="m124.81 149.4a459 459 0 0 1 -97.62 0 27.69 27.69 0 0 1 -24.59-24.59 459 459 0 0 1 0-97.62 27.69 27.69 0 0 1 24.59-24.59 459 459 0 0 1 97.62 0 27.69 27.69 0 0 1 24.59 24.59 459 459 0 0 1 0 97.62 27.69 27.69 0 0 1 -24.59 24.59z" fill="#f40055"/><path d="m150.45 113.74h-148.9a459.49 459.49 0 0 1 0-75.48h148.9a459.49 459.49 0 0 1 0 75.48z" fill="#ffcb24"/></g></g></svg>