<svg height="512" viewBox="0 0 152 152" width="512" xmlns="http://www.w3.org/2000/svg"><g id="Layer_2" data-name="Layer 2"><g id="_31.france" data-name="31.france"><path id="path" d="m124.81 149.4a459 459 0 0 1 -97.62 0 27.69 27.69 0 0 1 -24.59-24.59 459 459 0 0 1 0-97.62 27.69 27.69 0 0 1 24.59-24.59 459 459 0 0 1 97.62 0 27.69 27.69 0 0 1 24.59 24.59 459 459 0 0 1 0 97.62 27.69 27.69 0 0 1 -24.59 24.59z" fill="#f0f9ff"/><path d="m44.2 1.1v149.8q-8.51-.59-17-1.5a27.69 27.69 0 0 1 -24.6-24.59 459 459 0 0 1 0-97.62 27.69 27.69 0 0 1 24.59-24.59q8.51-.91 17.01-1.5z" fill="#406bd4"/><path d="m149.4 124.81a27.69 27.69 0 0 1 -24.59 24.59q-8.5.91-17 1.5v-149.8q8.51.59 17 1.5a27.69 27.69 0 0 1 24.59 24.59 459 459 0 0 1 0 97.62z" fill="#f40055"/></g></g></svg>