<svg height="512" viewBox="0 0 152 152" width="512" xmlns="http://www.w3.org/2000/svg"><g id="Layer_2" data-name="Layer 2"><g id="_46.england" data-name="46.england"><path id="path" d="m124.81 149.4a459 459 0 0 1 -97.62 0 27.69 27.69 0 0 1 -24.59-24.59 459 459 0 0 1 0-97.62 27.69 27.69 0 0 1 24.59-24.59 459 459 0 0 1 97.62 0 27.69 27.69 0 0 1 24.59 24.59 459 459 0 0 1 0 97.62 27.69 27.69 0 0 1 -24.59 24.59z" fill="#f0f9ff"/><path d="m151.77 90.17h-61.6v61.61q-14.17.43-28.34 0v-61.61h-61.6q-.45-14.17 0-28.34h61.6v-61.61q14.17-.44 28.34 0v61.61h61.6q.45 14.17 0 28.34z" fill="#f40055"/></g></g></svg>