<svg height="512" viewBox="0 0 152 152" width="512" xmlns="http://www.w3.org/2000/svg"><g id="Layer_2" data-name="Layer 2"><g id="_24.equatorial_guinea" data-name="24.equatorial guinea"><path id="path" d="m124.81 149.4a459 459 0 0 1 -97.62 0 27.69 27.69 0 0 1 -24.59-24.59 459 459 0 0 1 0-97.62 27.69 27.69 0 0 1 24.59-24.59 459 459 0 0 1 97.62 0 27.69 27.69 0 0 1 24.59 24.59 459 459 0 0 1 0 97.62 27.69 27.69 0 0 1 -24.59 24.59z" fill="#f0f9ff"/><path d="m150.83 43.24h-124.83l-19.34-27.78c.2-.33.41-.66.64-1a27.63 27.63 0 0 1 19.89-11.85 459 459 0 0 1 97.62 0 27.68 27.68 0 0 1 24.59 24.58q.86 8.02 1.43 16.05z" fill="#39b44a"/><path d="m150.83 108.77q-.57 8-1.43 16a27.68 27.68 0 0 1 -24.59 24.58 459 459 0 0 1 -97.62 0 27.66 27.66 0 0 1 -20.07-12.08l20.12-28.5z" fill="#f0f9ff"/><path d="m102.86 58.27h-20.48a5 5 0 0 0 -5 5v15.2a15.25 15.25 0 1 0 30.5 0v-15.19a5 5 0 0 0 -5-5z" fill="#39b44a"/><path d="m45 83.6-17.76 25.16-20.12 28.5c-.19-.28-.38-.57-.55-.86a27.73 27.73 0 0 1 -4-11.59 459 459 0 0 1 0-97.62 27.61 27.61 0 0 1 4.09-11.73c.2-.33.41-.66.64-1l20.14 28.78 17.61 25.15a13.22 13.22 0 0 1 -.05 15.21z" fill="#406bd4"/></g></g></svg>