<svg height="512" viewBox="0 0 152 152" width="512" xmlns="http://www.w3.org/2000/svg"><g id="Layer_2" data-name="Layer 2"><g id="_18..greece" data-name="18..greece"><path id="path" d="m124.81 149.4a459 459 0 0 1 -97.62 0 27.69 27.69 0 0 1 -24.59-24.59 459 459 0 0 1 0-97.62 27.69 27.69 0 0 1 24.59-24.59 459 459 0 0 1 97.62 0 27.69 27.69 0 0 1 24.59 24.59 459 459 0 0 1 0 97.62 27.69 27.69 0 0 1 -24.59 24.59z" fill="#406bd4"/><g fill="#f0f9ff"><path d="m150.31 115.33c-.28 3.17-.58 6.33-.92 9.49 0 .18 0 .35-.07.53h-146.65c0-.18 0-.35-.07-.53q-.51-4.74-.91-9.49z"/><path d="m151.87 86.34q-.1 5-.33 10h-151.08q-.24-5-.34-10z"/><path d="m151.87 65.67h-75.87v-10h75.54q.22 4.99.33 10z"/><path d="m150.3 36.52h-74.3v-9.86h73.32c0 .18.05.35.07.53q.5 4.67.91 9.33z"/><path d="m76 36.52v10.11h-37.74v40h-10v-40h-27.32q.33-5.06.76-10.11h26.54v-34.02q5-.53 10-.94v35z"/></g></g></g></svg>