<svg height="512" viewBox="0 0 152 152" width="512" xmlns="http://www.w3.org/2000/svg"><g id="Layer_2" data-name="Layer 2"><g id="_05.guatemala" data-name="05.guatemala"><path id="path" d="m124.81 149.4a459 459 0 0 1 -97.62 0 27.69 27.69 0 0 1 -24.59-24.59 459 459 0 0 1 0-97.62 27.69 27.69 0 0 1 24.59-24.59 459 459 0 0 1 97.62 0 27.69 27.69 0 0 1 24.59 24.59 459 459 0 0 1 0 97.62 27.69 27.69 0 0 1 -24.59 24.59z" fill="#4cc1ff"/><path d="m116.71 1.82v148.36q-7.62.67-15.25 1.11t-15.26.6q-13 .29-25.91-.16t-26.19-1.66v-148.14q16.14-1.48 32.31-1.82 9.59-.21 19.19 0 15.56.33 31.11 1.71z" fill="#f0f9ff"/><path d="m82.49 64.86 2.8-2.8a5 5 0 1 0 -7.09-7.06l-2.8 2.8-2.8-2.8a5 5 0 0 0 -7.08 7.08l2.8 2.8-2.8 2.8a5 5 0 0 0 7.08 7.09l2.8-2.77 2.8 2.8a5 5 0 0 0 7.09-7.09z" fill="#cee5f5"/><path d="m105.36 66.61a30 30 0 0 0 -3.5-14.06 5 5 0 0 0 -8.86 4.71 19.64 19.64 0 0 1 2.33 9.35 19.94 19.94 0 1 1 -39.88 0 19.75 19.75 0 0 1 2.33-9.35 5 5 0 1 0 -8.78-4.71 30 30 0 0 0 17 42.5l-.75.89a5 5 0 1 0 7.69 6.42l2.5-3 2.5 3a5 5 0 0 0 7.69-6.42l-.75-.89a30 30 0 0 0 20.52-28.44z" fill="#39b44a"/></g></g></svg>