<svg height="512" viewBox="0 0 152 152" width="512" xmlns="http://www.w3.org/2000/svg"><g id="Layer_2" data-name="Layer 2"><g id="_22.honduras" data-name="22.honduras"><path id="path" d="m124.81 149.4a459 459 0 0 1 -97.62 0 27.69 27.69 0 0 1 -24.59-24.59 459 459 0 0 1 0-97.62 27.69 27.69 0 0 1 24.59-24.59 459 459 0 0 1 97.62 0 27.69 27.69 0 0 1 24.59 24.59 459 459 0 0 1 0 97.62 27.69 27.69 0 0 1 -24.59 24.59z" fill="#4cc1ff"/><path d="m150.45 113.79h-148.9a460.71 460.71 0 0 1 0-75.58h148.9a460.71 460.71 0 0 1 0 75.58z" fill="#f0f9ff"/><g fill="#4cc1ff"><path d="m57.19 93.14a5 5 0 0 0 -10 0 5 5 0 0 0 0 10 5 5 0 0 0 10 0 5 5 0 0 0 0-10z"/><path d="m104.78 93.14a5 5 0 0 0 -10 0 5 5 0 0 0 0 10 5 5 0 0 0 10 0 5 5 0 0 0 0-10z"/><path d="m81 71a5 5 0 0 0 -10 0 5 5 0 0 0 0 10 5 5 0 0 0 10 0 5 5 0 0 0 0-10z"/><path d="m57.19 48.89a5 5 0 0 0 -10 0 5 5 0 0 0 0 10 5 5 0 0 0 10 0 5 5 0 0 0 0-10z"/><path d="m94.81 58.85a5 5 0 0 0 10 0 5 5 0 0 0 0-10 5 5 0 0 0 -10 0 5 5 0 0 0 0 10z"/></g></g></g></svg>