<svg height="512" viewBox="0 0 152 152" width="512" xmlns="http://www.w3.org/2000/svg"><defs><clipPath id="clip"><path d="m124.81 149.4a459 459 0 0 1 -97.62 0 27.69 27.69 0 0 1 -24.59-24.59 459 459 0 0 1 0-97.62 27.69 27.69 0 0 1 24.59-24.59 459 459 0 0 1 97.62 0 27.69 27.69 0 0 1 24.59 24.59 459 459 0 0 1 0 97.62 27.69 27.69 0 0 1 -24.59 24.59z"/></clipPath></defs><g clip-path="url(#clip)"><rect width="152" height="76" fill="#f40055"/><rect y="76" width="152" height="76" fill="#f0f9ff"/></g></svg>