<svg height="512" viewBox="0 0 152 152" width="512" xmlns="http://www.w3.org/2000/svg"><g id="Layer_2" data-name="Layer 2"><g id="_19.ireland" data-name="19.ireland"><path id="path" d="m124.81 149.4a459 459 0 0 1 -97.62 0 27.69 27.69 0 0 1 -24.59-24.59 459 459 0 0 1 0-97.62 27.69 27.69 0 0 1 24.59-24.59 459 459 0 0 1 97.62 0 27.69 27.69 0 0 1 24.59 24.59 459 459 0 0 1 0 97.62 27.69 27.69 0 0 1 -24.59 24.59z" fill="#f0f9ff"/><path d="m44.23 1.11q-8.53.58-17 1.49a27.69 27.69 0 0 0 -24.63 24.59 459 459 0 0 0 0 97.62 27.67 27.67 0 0 0 24.58 24.59q8.52.9 17 1.49l1.82.11v-150z" fill="#39b44a"/><path d="m106.59 1v150c.39 0 .78 0 1.17-.09q8.52-.58 17-1.49a27.69 27.69 0 0 0 24.59-24.59 460.34 460.34 0 0 0 0-97.62 27.7 27.7 0 0 0 -24.54-24.61q-8.52-.9-17-1.49z" fill="#f49600"/></g></g></svg>