<svg height="512" viewBox="0 0 152 152" width="512" xmlns="http://www.w3.org/2000/svg"><g id="Layer_2" data-name="Layer 2"><g id="_11.iran" data-name="11.iran"><path id="path" d="m124.81 149.4a459 459 0 0 1 -97.62 0 27.69 27.69 0 0 1 -24.59-24.59 459 459 0 0 1 0-97.62 27.69 27.69 0 0 1 24.59-24.59 459 459 0 0 1 97.62 0 27.69 27.69 0 0 1 24.59 24.59 459 459 0 0 1 0 97.62 27.69 27.69 0 0 1 -24.59 24.59z" fill="#f0f9ff"/><path d="m151.08 46.87h-150.16q.63-9.87 1.68-19.69a27.68 27.68 0 0 1 24.59-24.58 459 459 0 0 1 97.62 0 27.68 27.68 0 0 1 24.59 24.58q1.05 9.82 1.68 19.69z" fill="#39b44a"/><g fill="#f40055"><path d="m151.08 105.13q-.63 9.84-1.68 19.68a27.68 27.68 0 0 1 -24.59 24.58 459 459 0 0 1 -97.62 0 27.68 27.68 0 0 1 -24.59-24.58q-1.05-9.81-1.68-19.68z"/><path d="m91.67 59.9h-1.83a5 5 0 0 0 -5 5v9.22a8.82 8.82 0 0 1 -3.84 7.27v-23.19a5 5 0 1 0 -10 0v23.2a8.31 8.31 0 0 1 -1.21-1 8.73 8.73 0 0 1 -2.61-6.26v-9.23a5 5 0 0 0 -5-5h-1.85a16.57 16.57 0 0 0 -16.54 16.54 25.62 25.62 0 0 0 7.56 18.22 5 5 0 0 0 7.09-7.08 15.63 15.63 0 0 1 -4.63-11.14 6.52 6.52 0 0 1 3.34-5.69v3.37a18.73 18.73 0 0 0 5.56 13.37 19.32 19.32 0 0 0 4.55 3.34 5 5 0 0 0 4 8h9.4a5 5 0 0 0 5-5 5 5 0 0 0 -1-3 18.89 18.89 0 0 0 10.19-16.71v-3.37a6.52 6.52 0 0 1 3.34 5.69 15.59 15.59 0 0 1 -4.91 11.41 5 5 0 0 0 6.91 7.26 25.89 25.89 0 0 0 8-18.67 16.57 16.57 0 0 0 -16.52-16.55z"/></g></g></g></svg>