<svg height="512" viewBox="0 0 152 152" width="512" xmlns="http://www.w3.org/2000/svg"><g id="Layer_2" data-name="Layer 2"><g id="_36.italy" data-name="36.italy"><path id="path" d="m124.81 149.4a459 459 0 0 1 -97.62 0 27.69 27.69 0 0 1 -24.59-24.59 459 459 0 0 1 0-97.62 27.69 27.69 0 0 1 24.59-24.59 459 459 0 0 1 97.62 0 27.69 27.69 0 0 1 24.59 24.59 459 459 0 0 1 0 97.62 27.69 27.69 0 0 1 -24.59 24.59z" fill="#f0f9ff"/><path d="m34.7 1.87v148.26c-2.5-.22-5-.47-7.51-.74a27.66 27.66 0 0 1 -24.59-24.57 459.21 459.21 0 0 1 0-97.64 27.68 27.68 0 0 1 24.59-24.57c2.5-.27 5.01-.51 7.51-.74z" fill="#39b44a"/><path d="m149.4 124.82a27.66 27.66 0 0 1 -24.59 24.57c-2.5.27-5 .52-7.51.74v-148.26c2.5.23 5 .47 7.51.74a27.68 27.68 0 0 1 24.59 24.57 459.21 459.21 0 0 1 0 97.64z" fill="#d1004a"/></g></g></svg>