<svg height="512" viewBox="0 0 152 152" width="512" xmlns="http://www.w3.org/2000/svg"><g id="Layer_2" data-name="Layer 2"><g id="_20.north_korea" data-name="20.north korea"><path id="path" d="m124.81 149.4a459 459 0 0 1 -97.62 0 27.69 27.69 0 0 1 -24.59-24.59 459 459 0 0 1 0-97.62 27.69 27.69 0 0 1 24.59-24.59 459 459 0 0 1 97.62 0 27.69 27.69 0 0 1 24.59 24.59 459 459 0 0 1 0 97.62 27.69 27.69 0 0 1 -24.59 24.59z" fill="#406bd4"/><path d="m149.68 120.5h-147.36a459.48 459.48 0 0 1 -.32-89h148a459.48 459.48 0 0 1 -.32 89z" fill="#f40055"/><path d="m56 37.05a39 39 0 1 0 38.91 38.95 39 39 0 0 0 -38.91-38.95z" fill="#f0f9ff"/><path d="m84.77 66.21a5 5 0 0 0 -4.77-3.46h-12a3.67 3.67 0 0 1 -3.5-2.54l-3.78-11.47a5 5 0 0 0 -9.53 0l-3.72 11.47a3.67 3.67 0 0 1 -3.47 2.54h-12.09a5 5 0 0 0 -2.91 9.07l9.76 7.08a3.69 3.69 0 0 1 1.3 4.1l-3.73 11.49a5 5 0 0 0 7.71 5.6l9.76-7.09a3.66 3.66 0 0 1 4.32 0l9.76 7.09a5 5 0 0 0 7.71-5.6l-3.73-11.49a3.68 3.68 0 0 1 1.34-4.1l9.8-7.08a5 5 0 0 0 1.82-5.61z" fill="#f40055"/></g></g></svg>