<svg height="512" viewBox="0 0 152 152" width="512" xmlns="http://www.w3.org/2000/svg"><g id="Layer_2" data-name="Layer 2"><g id="_01.south_korea" data-name="01.south korea"><path id="path" d="m124.81 149.4a459 459 0 0 1 -97.62 0 27.69 27.69 0 0 1 -24.59-24.59 459 459 0 0 1 0-97.62 27.69 27.69 0 0 1 24.59-24.59 459 459 0 0 1 97.62 0 27.69 27.69 0 0 1 24.59 24.59 459 459 0 0 1 0 97.62 27.69 27.69 0 0 1 -24.59 24.59z" fill="#f0f9ff"/><path d="m99.31 52.69a33 33 0 1 0 0 46.62 33 33 0 0 0 0-46.62z" fill="#f40055"/><g fill="#141a1a"><path d="m124.45 42.54a5 5 0 1 0 7.09-7.08l-11.54-11.58a5 5 0 0 0 -7.12 7.12z"/><path d="m111.3 54.7a5 5 0 1 0 7.08-7.08l-10.8-10.81a5 5 0 0 0 -7.09 7.09z"/><path d="m24 44a5 5 0 0 0 3.55-1.47l11.57-11.53a5 5 0 1 0 -7.12-7.12l-11.54 11.58a5 5 0 0 0 3.54 8.54z"/><path d="m44.42 36.81-10.8 10.81a5 5 0 1 0 7.08 7.08l10.81-10.8a5 5 0 0 0 -7.09-7.09z"/><path d="m124.45 109.46-11.57 11.54a5 5 0 0 0 7.09 7.09l11.57-11.58a5 5 0 1 0 -7.09-7.08z"/><path d="m118.38 97.3a5 5 0 0 0 -7.08 0l-10.81 10.8a5 5 0 1 0 7.09 7.09l10.8-10.81a5 5 0 0 0 0-7.08z"/><path d="m27.55 109.46a5 5 0 0 0 -7.09 7.08l11.54 11.58a5 5 0 1 0 7.12-7.12z"/><path d="m40.7 97.3a5 5 0 0 0 -7.08 7.08l10.8 10.81a5 5 0 1 0 7.09-7.09z"/></g><path d="m101.39 75.58a17.65 17.65 0 0 0 -25 0l-.85.85a17.64 17.64 0 0 1 -30.09-12.83 33 33 0 0 0 53.86 35.71 32.66 32.66 0 0 0 7.24-10.91 17.59 17.59 0 0 0 -5.16-12.82z" fill="#406bd4"/></g></g></svg>