<svg height="512" viewBox="0 0 152 152" width="512" xmlns="http://www.w3.org/2000/svg"><g id="Layer_2" data-name="Layer 2"><g id="_25.libya" data-name="25.libya"><path d="m150.65 111.15c-.06.86-.13 1.73-.2 2.6-.31 3.69-.65 7.38-1 11.07a27.68 27.68 0 0 1 -24.59 24.58 459 459 0 0 1 -97.62 0 27.68 27.68 0 0 1 -24.64-24.58c-.4-3.69-.74-7.38-1-11.07-.07-.87-.14-1.74-.2-2.6z" fill="#39b44a"/><path d="m150.64 40.77h-149.28c.06-.84.12-1.68.19-2.52q.45-5.53 1.05-11.07a27.68 27.68 0 0 1 24.59-24.58 459 459 0 0 1 97.62 0 27.68 27.68 0 0 1 24.59 24.58q.58 5.54 1 11.07c.12.84.18 1.68.24 2.52z" fill="#f40055"/><path d="m150.65 111.15c-.06.86-.13 1.73-.2 2.6h-148.9c-.07-.87-.14-1.74-.2-2.6a458 458 0 0 1 0-70.38c.06-.84.12-1.68.19-2.52h148.9c.07.84.13 1.68.19 2.52a458 458 0 0 1 .02 70.38z" fill="#141a1a"/><g fill="#f0f9ff"><path d="m115.26 76a5 5 0 0 0 -4.41-5 5 5 0 0 0 -9.94 0 5 5 0 0 0 0 9.94 5 5 0 0 0 9.94 0 5 5 0 0 0 4.41-5z"/><path d="m78.36 92.33a16.33 16.33 0 0 1 -.61-32.65 16.67 16.67 0 0 1 4.87.55 1.46 1.46 0 0 0 1.38-2.49 24.62 24.62 0 1 0 0 36.52 1.46 1.46 0 0 0 -1.32-2.5 16.24 16.24 0 0 1 -4.27.57z"/></g></g></g></svg>