<svg height="512" viewBox="0 0 152 152" width="512" xmlns="http://www.w3.org/2000/svg"><g id="Layer_2" data-name="Layer 2"><g id="_13.morocco" data-name="13.morocco"><path id="path" d="m124.81 149.4a459 459 0 0 1 -97.62 0 27.69 27.69 0 0 1 -24.59-24.59 459 459 0 0 1 0-97.62 27.69 27.69 0 0 1 24.59-24.59 459 459 0 0 1 97.62 0 27.69 27.69 0 0 1 24.59 24.59 459 459 0 0 1 0 97.62 27.69 27.69 0 0 1 -24.59 24.59z" fill="#f40055"/><path d="m116 63.68a3.87 3.87 0 0 0 -3.72-2.68h-24.28l-8.3-23.76a3.88 3.88 0 0 0 -7.32 0l-8.38 23.76h-24.28a3.87 3.87 0 0 0 -2.3 7l19.22 14.2-9.3 26.65a3.87 3.87 0 0 0 6 4.39l22.66-16.75 22.7 16.75a3.87 3.87 0 0 0 6-4.39l-9.34-26.65 19.22-14.2a3.87 3.87 0 0 0 1.42-4.32zm-40-13.39 3.75 10.71h-7.5zm-24.5 18.48h9.84l-2 5.77zm7.29 30.78 4.38-12.55 6.3 4.65zm7.06-20.19 3.69-10.59h12.92l3.69 10.59-10.15 7.49zm16.68 12.31 6.3-4.67 4.38 12.53zm10.15-17.13-2-5.77h9.84z" fill="#39b44a"/></g></g></svg>