<svg height="512" viewBox="0 0 152 152" width="512" xmlns="http://www.w3.org/2000/svg"><g id="Layer_2" data-name="Layer 2"><g id="_28.mauritius" data-name="28.mauritius"><path d="m152 76v.84h-152v-.84q0-20.55 1.84-41.08c0-.27 0-.54.07-.81h148.18c0 .27 0 .54.07.81q1.84 20.52 1.84 41.08z" fill="#406bd4"/><path d="m150.23 116.32c0 .25 0 .51-.07.76q-.34 3.87-.76 7.74a27.68 27.68 0 0 1 -24.59 24.58 459 459 0 0 1 -97.62 0 27.68 27.68 0 0 1 -24.59-24.58q-.42-3.87-.76-7.74c0-.25-.05-.51-.07-.76z" fill="#39b44a"/><path d="m150.16 34.92h-148.32c0-.27 0-.54.07-.81q.32-3.46.69-6.93a27.68 27.68 0 0 1 24.59-24.58 459 459 0 0 1 97.62 0 27.68 27.68 0 0 1 24.59 24.58q.38 3.46.69 6.93c.02.27.05.54.07.81z" fill="#f40055"/><path d="m152 76v.84q0 19.75-1.77 39.48c0 .25 0 .51-.07.76h-148.32c0-.25-.05-.51-.07-.76q-1.77-19.72-1.77-39.48v-.84z" fill="#ffcb24"/></g></g></svg>