<svg height="512" viewBox="0 0 152 152" width="512" xmlns="http://www.w3.org/2000/svg"><g id="Layer_2" data-name="Layer 2"><g id="_37.mexico" data-name="37.mexico"><path id="path" d="m124.81 149.4a459 459 0 0 1 -97.62 0 27.69 27.69 0 0 1 -24.59-24.59 459 459 0 0 1 0-97.62 27.69 27.69 0 0 1 24.59-24.59 459 459 0 0 1 97.62 0 27.69 27.69 0 0 1 24.59 24.59 459 459 0 0 1 0 97.62 27.69 27.69 0 0 1 -24.59 24.59z" fill="#f0f9ff"/><path d="m34.7 1.87v148.26c-2.5-.22-5-.47-7.51-.74a27.66 27.66 0 0 1 -24.59-24.57 459.21 459.21 0 0 1 0-97.64 27.68 27.68 0 0 1 24.59-24.57c2.5-.27 5.01-.51 7.51-.74z" fill="#39b44a"/><path d="m149.4 124.82a27.66 27.66 0 0 1 -24.59 24.57c-2.5.27-5 .52-7.51.74v-148.26c2.5.23 5 .47 7.51.74a27.68 27.68 0 0 1 24.59 24.57 459.21 459.21 0 0 1 0 97.64z" fill="#d1004a"/><path d="m101.55 62.5a5 5 0 0 0 -8.85 4.71 18.67 18.67 0 0 1 2.21 8.88 18.92 18.92 0 1 1 -35.62-8.88 5 5 0 0 0 -8.84-4.71 28.93 28.93 0 1 0 51.1 0z" fill="#39b44a"/><path d="m89.44 75.15a13.45 13.45 0 0 0 -16.89-12.15v-1.3a8.36 8.36 0 0 0 -8.35-8.35 5 5 0 0 0 -1.67 9.74v12.91a13.48 13.48 0 0 0 13.47 13.47 5 5 0 1 0 0-10 3.46 3.46 0 0 1 -3.45-3.47 3.46 3.46 0 0 1 3.68-3.44 3.48 3.48 0 0 1 3.21 3.21 5 5 0 0 0 10-.62z" fill="#f49600"/></g></g></svg>