<svg height="512" viewBox="0 0 152 152" width="512" xmlns="http://www.w3.org/2000/svg"><g id="Layer_2" data-name="Layer 2"><g id="_09.panama" data-name="09.panama"><path id="path" d="m124.81 149.4a459 459 0 0 1 -97.62 0 27.69 27.69 0 0 1 -24.59-24.59 459 459 0 0 1 0-97.62 27.69 27.69 0 0 1 24.59-24.59 459 459 0 0 1 97.62 0 27.69 27.69 0 0 1 24.59 24.59 459 459 0 0 1 0 97.62 27.69 27.69 0 0 1 -24.59 24.59z" fill="#f0f9ff"/><path d="m152 76h-76v-76a460.89 460.89 0 0 1 48.81 2.6 27.68 27.68 0 0 1 24.59 24.58 458.58 458.58 0 0 1 2.6 48.82z" fill="#d60354"/><path d="m76 76v76a458.25 458.25 0 0 1 -48.81-2.6 27.68 27.68 0 0 1 -24.59-24.59 458.39 458.39 0 0 1 -2.6-48.81z" fill="#406bd4"/><path d="m46.14 44 9-6.52a2.26 2.26 0 0 0 -1.33-4.08h-11.12a2.25 2.25 0 0 1 -2.14-1.56l-3.43-10.59a2.26 2.26 0 0 0 -4.3 0l-3.42 10.55a2.27 2.27 0 0 1 -2.15 1.56h-11.09a2.26 2.26 0 0 0 -1.33 4.08l9 6.52a2.26 2.26 0 0 1 .82 2.53l-3.45 10.51a2.26 2.26 0 0 0 3.47 2.53l9-6.52a2.28 2.28 0 0 1 2.66 0l9 6.52a2.26 2.26 0 0 0 3.42-2.53l-3.43-10.51a2.27 2.27 0 0 1 .82-2.49z" fill="#406bd4"/><path d="m127.16 114.35 9-6.52a2.26 2.26 0 0 0 -1.33-4.09h-11.12a2.27 2.27 0 0 1 -2.15-1.56l-3.42-10.54a2.26 2.26 0 0 0 -4.3 0l-3.43 10.54a2.25 2.25 0 0 1 -2.14 1.56h-11.09a2.26 2.26 0 0 0 -1.33 4.09l9 6.52a2.25 2.25 0 0 1 .82 2.52l-3.43 10.55a2.26 2.26 0 0 0 3.48 2.52l9-6.51a2.25 2.25 0 0 1 2.66 0l9 6.51a2.25 2.25 0 0 0 3.47-2.52l-3.42-10.55a2.22 2.22 0 0 1 .82-2.52z" fill="#d60354"/></g></g></svg>