<svg height="512" viewBox="0 0 152 152" width="512" xmlns="http://www.w3.org/2000/svg"><g id="Layer_2" data-name="Layer 2"><g id="_40.portugal" data-name="40.portugal"><path id="path" d="m124.81 149.4a459 459 0 0 1 -97.62 0 27.69 27.69 0 0 1 -24.59-24.59 459 459 0 0 1 0-97.62 27.69 27.69 0 0 1 24.59-24.59 459 459 0 0 1 97.62 0 27.69 27.69 0 0 1 24.59 24.59 459 459 0 0 1 0 97.62 27.69 27.69 0 0 1 -24.59 24.59z" fill="#f40055"/><path d="m54.39.51v151q-13.62-.65-27.2-2.09a27.68 27.68 0 0 1 -24.59-24.61 459 459 0 0 1 0-97.62 27.7 27.7 0 0 1 24.59-24.59q13.59-1.44 27.2-2.09z" fill="#39b44a"/><path d="m54.39 33.37a41.11 41.11 0 1 0 41.11 41.11 41.15 41.15 0 0 0 -41.11-41.11zm30.69 36.1h-18.59l3.51-3.53 9.6-9.61a30.89 30.89 0 0 1 5.48 13.14zm-25.68-25.68a30.89 30.89 0 0 1 13.14 5.46l-10.4 10.39-2.74 2.74zm-10 0v18.59l-13.15-13.13a30.9 30.9 0 0 1 13.13-5.46zm-20.23 12.54 9.6 9.61 3.53 3.53h-18.59a30.89 30.89 0 0 1 5.46-13.14zm-5.46 23.16h18.59l-13.13 13.13a30.9 30.9 0 0 1 -5.46-13.13zm25.67 25.67a31 31 0 0 1 -13.13-5.45l10-10 3.12-3.12zm10 0v-18.59l3.13 3.13 10 10a31 31 0 0 1 -13.11 5.46zm20.24-12.54-13.13-13.13h18.59a30.9 30.9 0 0 1 -5.46 13.13z" fill="#ffcb24"/><path d="m54.4 92a15.62 15.62 0 0 1 -15.63-15.64v-11.71a5 5 0 0 1 5-5h21.23a5 5 0 0 1 5 5v11.71a15.62 15.62 0 0 1 -15.6 15.64z" fill="#fff"/></g></g></svg>