<svg height="512" viewBox="0 0 152 152" width="512" xmlns="http://www.w3.org/2000/svg"><g id="Layer_2" data-name="Layer 2"><g id="_21.saudi_arabia" data-name="21.saudi arabia"><path id="path" d="m124.81 149.4a459 459 0 0 1 -97.62 0 27.69 27.69 0 0 1 -24.59-24.59 459 459 0 0 1 0-97.62 27.69 27.69 0 0 1 24.59-24.59 459 459 0 0 1 97.62 0 27.69 27.69 0 0 1 24.59 24.59 459 459 0 0 1 0 97.62 27.69 27.69 0 0 1 -24.59 24.59z" fill="#39b44a"/><g fill="#f0f9ff"><path d="m118.3 94.65h-8.81v-1.07a5 5 0 1 0 -10 0v1.07h-65.79a5 5 0 0 0 0 10h65.77v1.07a5 5 0 1 0 10 0v-1.07h8.81a5 5 0 1 0 0-10z"/><path d="m48.24 84.2a12 12 0 0 0 11.95-12v-19a1.93 1.93 0 1 1 3.86 0v19a12 12 0 0 0 23.9 0 5 5 0 1 0 -10 0 1.93 1.93 0 0 1 -3.86 0v-19a12 12 0 1 0 -23.9 0v19a1.93 1.93 0 0 1 -3.86 0 5 5 0 0 0 -10 0 12 12 0 0 0 11.91 12z"/><path d="m82.94 58.21a5 5 0 0 0 5-5 1.93 1.93 0 0 1 3.86 0v19a11.95 11.95 0 1 0 23.9 0v-26a5 5 0 1 0 -10 0v26a1.93 1.93 0 1 1 -3.86 0v-19a12 12 0 0 0 -23.9 0 5 5 0 0 0 5 5z"/><path d="m41.3 63a5 5 0 0 0 5-5v-11.74a5 5 0 0 0 -10 0v11.74a5 5 0 0 0 5 5z"/></g></g></g></svg>