<svg height="512" viewBox="0 0 152 152" width="512" xmlns="http://www.w3.org/2000/svg"><g id="Layer_2" data-name="Layer 2"><g id="_26.sudan" data-name="26.sudan"><path id="path" d="m124.81 149.4a459 459 0 0 1 -97.62 0 27.69 27.69 0 0 1 -24.59-24.59 459 459 0 0 1 0-97.62 27.69 27.69 0 0 1 24.59-24.59 459 459 0 0 1 97.62 0 27.69 27.69 0 0 1 24.59 24.59 459 459 0 0 1 0 97.62 27.69 27.69 0 0 1 -24.59 24.59z" fill="#f0f9ff"/><path d="m151 45.36h-123.49l-20.85-29.9c.2-.33.41-.66.64-1a27.63 27.63 0 0 1 19.89-11.85 459 459 0 0 1 97.62 0 27.68 27.68 0 0 1 24.59 24.58q.98 9.08 1.6 18.17z" fill="#f40055"/><path d="m151 106.65q-.61 9.09-1.58 18.17a27.68 27.68 0 0 1 -24.59 24.58 459 459 0 0 1 -97.62 0 27.66 27.66 0 0 1 -20.09-12.13c-.19-.28-.38-.57-.55-.87l21.2-29.75z" fill="#141a1a"/><path d="m45 83.6-16.28 23-21.6 30.66c-.19-.28-.38-.57-.55-.87a27.55 27.55 0 0 1 -4-11.58 459 459 0 0 1 0-97.62 27.61 27.61 0 0 1 4.09-11.73c.2-.33.41-.66.64-1l21.62 30.9 16.13 23a13.22 13.22 0 0 1 -.05 15.24z" fill="#39b44a"/></g></g></svg>