<svg height="512" viewBox="0 0 152 152" width="512" xmlns="http://www.w3.org/2000/svg"><g id="Layer_2" data-name="Layer 2"><g id="_42.thailand" data-name="42.thailand"><path d="m151.38 99.82q-.16 3.33-.39 6.67-.47 7.07-1.16 14.13c-.14 1.4-.28 2.79-.43 4.19a27.69 27.69 0 0 1 -24.59 24.59 459 459 0 0 1 -97.62 0 27.69 27.69 0 0 1 -24.59-24.59c-.15-1.4-.29-2.79-.43-4.19q-.69-7.06-1.17-14.13-.23-3.34-.39-6.67a456 456 0 0 1 0-47.64q.16-3.33.39-6.67.47-7.07 1.16-14.13c.14-1.4.28-2.79.43-4.19a27.69 27.69 0 0 1 24.6-24.59 459 459 0 0 1 97.62 0 27.69 27.69 0 0 1 24.59 24.59c.15 1.4.29 2.79.43 4.19q.69 7.07 1.16 14.13.22 3.35.39 6.67a456 456 0 0 1 0 47.64z" fill="#f40055"/><path d="m151.38 99.82q-.16 3.33-.39 6.67h-149.99q-.23-3.34-.39-6.67a456 456 0 0 1 0-47.64q.16-3.33.39-6.67h150q.22 3.35.39 6.67a456 456 0 0 1 -.01 47.64z" fill="#406bd4"/><path d="m151.38 99.82q-.16 3.33-.39 6.67-.47 7.07-1.16 14.13h-147.66q-.69-7.06-1.17-14.13-.23-3.34-.39-6.67z" fill="#f0f9ff"/><path d="m151.38 52.18h-150.76q.16-3.33.39-6.67.47-7.07 1.16-14.13h147.66q.69 7.07 1.16 14.13.22 3.35.39 6.67z" fill="#fff"/></g></g></svg>