<svg height="512" viewBox="0 0 152 152" width="512" xmlns="http://www.w3.org/2000/svg"><g id="Layer_2" data-name="Layer 2"><g id="_27.turkmenistan" data-name="27.turkmenistan"><path id="path" d="m124.81 149.4a459 459 0 0 1 -97.62 0 27.69 27.69 0 0 1 -24.59-24.59 459 459 0 0 1 0-97.62 27.69 27.69 0 0 1 24.59-24.59 459 459 0 0 1 97.62 0 27.69 27.69 0 0 1 24.59 24.59 459 459 0 0 1 0 97.62 27.69 27.69 0 0 1 -24.59 24.59z" fill="#39b44a"/><path d="m49.24.79v150.43q-11-.65-22-1.82a28.1 28.1 0 0 1 -4.7-.91v-144.97a28.1 28.1 0 0 1 4.7-.91q10.97-1.18 22-1.82z" fill="#f40055"/><g fill="#f0f9ff"><path d="m72.72 30.47a5 5 0 0 0 -4.5-5 5 5 0 0 0 -10 0 5 5 0 0 0 0 10 5 5 0 0 0 10 0 5 5 0 0 0 4.5-5z"/><path d="m117.44 37.22a27.49 27.49 0 0 0 -18.14-8 1.62 1.62 0 0 0 -.93 3 18.44 18.44 0 0 1 3.83 2.94 18.3 18.3 0 0 1 -25.39 26.33c-.28-.26-.55-.53-.81-.8a18 18 0 0 1 -2.61-3.49 1.63 1.63 0 0 0 -3 .91 27.46 27.46 0 0 0 5.61 15.38 27.6 27.6 0 1 0 41.44-36.28z"/></g></g></g></svg>