<svg height="512" viewBox="0 0 152 152" width="512" xmlns="http://www.w3.org/2000/svg"><g id="Layer_2" data-name="Layer 2"><g id="_38.turkey" data-name="38.turkey"><path id="path" d="m124.81 149.4a459 459 0 0 1 -97.62 0 27.69 27.69 0 0 1 -24.59-24.59 459 459 0 0 1 0-97.62 27.69 27.69 0 0 1 24.59-24.59 459 459 0 0 1 97.62 0 27.69 27.69 0 0 1 24.59 24.59 459 459 0 0 1 0 97.62 27.69 27.69 0 0 1 -24.59 24.59z" fill="#f40055"/><g fill="#fff"><path d="m68 101.32a25.32 25.32 0 0 1 -.06-50.64q1.25 0 2.46.12a3.44 3.44 0 0 0 2.27-6.26 38.17 38.17 0 1 0 0 62.9 3.44 3.44 0 0 0 -2.3-6.24 23.81 23.81 0 0 1 -2.4.12z"/><path d="m100 71a5 5 0 0 0 -10 0h-.05a5 5 0 1 0 0 10h.05a5 5 0 1 0 10 0 5 5 0 0 0 0-10z"/></g></g></g></svg>