<svg height="512" viewBox="0 0 152 152" width="512" xmlns="http://www.w3.org/2000/svg"><g id="Layer_2" data-name="Layer 2"><g id="_06.united_states_of_america" data-name="06.united states of america"><path id="path" d="m124.81 149.4a459 459 0 0 1 -97.62 0 27.69 27.69 0 0 1 -24.59-24.59 459 459 0 0 1 0-97.62 27.69 27.69 0 0 1 24.59-24.59 459 459 0 0 1 97.62 0 27.69 27.69 0 0 1 24.59 24.59 459 459 0 0 1 0 97.62 27.69 27.69 0 0 1 -24.59 24.59z" fill="#f0f9ff"/><g fill="#f40055"><path d="m152 82.47h-80.26v-12.93h80.26q.06 6.46 0 12.93z"/><path d="m150.31 115.44c-.27 3.12-.58 6.25-.91 9.37a27.72 27.72 0 0 1 -.62 3.57h-145.56a27.72 27.72 0 0 1 -.62-3.57c-.33-3.12-.64-6.25-.91-9.37z"/><path d="m144.08 13.61h-72.34v-13.61h4.26q6.1 0 12.21.16t12.21.49q9.15.48 18.29 1.33c2 .19 4.07.39 6.1.61.56.06 1.11.14 1.66.24.39.06.77.13 1.15.21l.24.05c.43.1.86.2 1.28.32s.93.26 1.38.41a27 27 0 0 1 2.68 1c.43.19.86.39 1.27.61l1 .56c.49.28 1 .58 1.45.88s.76.51 1.13.78l.9.68.49.4c.2.16.39.32.57.49s.54.47.8.72l.59.57a25 25 0 0 1 1.83 2c.33.41.59.75.85 1.1z"/><path d="m151.71 59.52h-80v-12.94h79.32q.45 6.42.68 12.94z"/><path d="m151.71 92.49q-.24 6.47-.65 12.93h-150.12q-.42-6.42-.65-12.93z"/><path d="m144.08 138.4a27.64 27.64 0 0 1 -19.27 11 459 459 0 0 1 -97.62 0 27.64 27.64 0 0 1 -19.27-11z"/><path d="m150.31 36.56h-78.57v-12.93h77a27.87 27.87 0 0 1 .62 3.56c.37 3.12.64 6.24.95 9.37z"/></g><path d="m76 0v82.47h-75.95c0-1 0-2 0-3-.05-2.72-.05-5.47-.05-8.24 0-1.21 0-2.41.05-3.62s.05-2.54.08-3.81c0-.09 0-.19 0-.29 0-1.36.08-2.72.13-4.09a5 5 0 0 0 3.21 1.58 5 5 0 0 0 10 0 5 5 0 0 0 0-10 5 5 0 0 0 -10 0 4.93 4.93 0 0 0 -2.86 1.34c0-.25 0-.5 0-.75.12-1.53.21-3.07.31-4.59s.2-3 .31-4.54c0-.35.05-.69.08-1 .12-1.69.26-3.38.4-5.07a.2.2 0 0 0 0-.07c.16-1.79.32-3.58.5-5.36.12-1.24.25-2.48.38-3.72.06-.55.14-1.1.23-1.65s.24-1.29.39-1.92c.1-.38.2-.77.31-1.15s.18-.6.28-.9c.16-.51.34-1 .54-1.51s.3-.75.46-1.11.33-.73.51-1.09c.26-.52.53-1 .82-1.53.14-.25.29-.5.44-.74.3-.49.62-1 1-1.44s.64-.88 1-1.31c.56-.7 1.15-1.36 1.77-2l.55-.55c.63-.61 1.29-1.2 2-1.75l.6-.59c.22-.18.46-.34.69-.51a26.91 26.91 0 0 1 2.4-1.49l.54-.3c.38-.2.76-.4 1.16-.59l.85-.38c.29-.13.58-.25.88-.36s.73-.28 1.1-.41l.76-.25h.14l.65-.19 1-.26c.34-.14.73-.26 1.11-.26h.09c.37-.07.74-.14 1.12-.19s.8-.12 1.21-.16q5-.52 10-1l2.21-.18s0 0 0 0c1.49-.12 3-.24 4.46-.34h.06c1.46-.13 2.92-.2 4.38-.29h.23l2.47-.15h.54c3-.16 6-.29 9-.39 1.91-.09 3.77-.14 5.63-.18s3.51-.07 5.27-.12h.3z" fill="#406bd4"/><path d="m63 51.05a5 5 0 0 1 0 10 5 5 0 0 1 -10 0 5 5 0 0 1 0-10 5 5 0 0 1 10 0z" fill="#fff"/><path d="m23.78 56a5 5 0 0 1 4.49-5 5 5 0 0 1 10 0 5 5 0 0 1 0 10 5 5 0 0 1 -10 0 5 5 0 0 1 -4.49-5z" fill="#fff"/><path d="m42.73 26.22a5 5 0 0 1 -4.5 5 5 5 0 0 1 -10 0 5 5 0 0 1 0-10 5 5 0 0 1 10 0 5 5 0 0 1 4.5 5z" fill="#fff"/><path d="m17.93 26.22a5 5 0 0 1 -4.49 5 5 5 0 0 1 -10 0 4.76 4.76 0 0 1 -1.25-.3c.12-1.24.25-2.48.38-3.72a27.67 27.67 0 0 1 2.72-9.33 4.92 4.92 0 0 1 3.13-1.11 5 5 0 0 1 5 4.49 5 5 0 0 1 4.51 4.97z" fill="#fff"/><path d="m67.52 26.22a5 5 0 0 1 -4.49 5 5 5 0 0 1 -10 0 5 5 0 0 1 0-10 5 5 0 0 1 10 0 5 5 0 0 1 4.49 5z" fill="#fff"/></g></g></svg>