<svg height="512" viewBox="0 0 152 152" width="512" xmlns="http://www.w3.org/2000/svg"><g id="Layer_2" data-name="Layer 2"><g id="_33.uruguay" data-name="33.uruguay"><path id="path" d="m124.81 149.4a459 459 0 0 1 -97.62 0 27.69 27.69 0 0 1 -24.59-24.59 459 459 0 0 1 0-97.62 27.69 27.69 0 0 1 24.59-24.59 459 459 0 0 1 97.62 0 27.69 27.69 0 0 1 24.59 24.59 459 459 0 0 1 0 97.62 27.69 27.69 0 0 1 -24.59 24.59z" fill="#f0f9ff"/><g fill="#406bd4"><path d="m151.61 95.05q-.41 9.53-1.19 19h-148.84q-.79-9.52-1.19-19z"/><path d="m147.14 133.16a27.65 27.65 0 0 1 -22.33 16.23 459 459 0 0 1 -97.62 0 27.65 27.65 0 0 1 -22.33-16.23z"/><path d="m150.42 37.89h-74.42v-19h71.15a27.66 27.66 0 0 1 2.25 8.34q.6 5.3 1.02 10.66z"/><path d="m152 76h-76v-19.06h75.61q.39 9.53.39 19.06z"/></g><path d="m53.22 43.69a1 1 0 0 1 -.59-.77 1 1 0 0 1 .37-.92 5 5 0 0 0 -4-8.79 1 1 0 0 1 -.92-.34.94.94 0 0 1 -.2-1 5 5 0 0 0 -8.13-5.23 1 1 0 0 1 -.95.22.94.94 0 0 1 -.68-.7 5 5 0 0 0 -9.68 0 .94.94 0 0 1 -.68.7 1 1 0 0 1 -.95-.22 5 5 0 0 0 -8.13 5.23.94.94 0 0 1 -.2 1 1 1 0 0 1 -.91.34 5 5 0 0 0 -4 8.79 1 1 0 0 1 .35.91 1 1 0 0 1 -.59.77 5 5 0 0 0 1.37 9.58 1 1 0 0 1 .71 1.54 5 5 0 0 0 6.33 7.31 1 1 0 0 1 1.43.92 5 5 0 0 0 9.28 2.73 1 1 0 0 1 1.7 0 5 5 0 0 0 4.27 2.39 4.92 4.92 0 0 0 1.36-.15 5 5 0 0 0 3.6-5 1 1 0 0 1 1.43-.92 5 5 0 0 0 6.33-7.31 1 1 0 0 1 -.08-1 1 1 0 0 1 .79-.57 5 5 0 0 0 1.37-9.58z" fill="#ffcb24"/></g></g></svg>