<svg height="512" viewBox="0 0 152 152" width="512" xmlns="http://www.w3.org/2000/svg"><g id="Layer_2" data-name="Layer 2"><g id="_10.south_africa" data-name="10.south africa"><path id="path" d="m124.81 149.4a459 459 0 0 1 -97.62 0 27.69 27.69 0 0 1 -24.59-24.59 459 459 0 0 1 0-97.62 27.69 27.69 0 0 1 24.59-24.59 459 459 0 0 1 97.62 0 27.69 27.69 0 0 1 24.59 24.59 459 459 0 0 1 0 97.62 27.69 27.69 0 0 1 -24.59 24.59z" fill="#f0f9ff"/><path d="m151.45 98.41c0 .48 0 1-.07 1.46h-91.09l-53.43 37c-.14-.21-.28-.43-.41-.65a27.8 27.8 0 0 1 -3.83-11.37q-1.07-10-1.7-20-.37-6-.59-11.91-.63-17 0-34 .22-5.94.6-11.85.63-10 1.69-19.9a27.65 27.65 0 0 1 3.92-11.51 3.45 3.45 0 0 1 .2-.32l53.71 37.56h91v.42q1.12 22.57 0 45.07z" fill="#39b44a"/><path d="m42.41 75.89a5.17 5.17 0 0 1 -2.41 4.39l-39.08 24.51q-.37-6-.59-11.91-.63-17 0-34 .22-5.88.6-11.79l39.07 24.42a5.16 5.16 0 0 1 2.41 4.38z" fill="#ffcb24"/><path d="m27.48 75.89-27.15 16.99q-.63-17 0-34z" fill="#141a1a"/><path d="m151 106.33v.43q-.6 9-1.57 18a27.68 27.68 0 0 1 -24.59 24.58 458.83 458.83 0 0 1 -97.6 0 27.51 27.51 0 0 1 -14.49-6l-.41-.33 53.17-36.67z" fill="#406bd4"/><path d="m151 45.35h-85.35l-53.11-36.58.29-.24a27.62 27.62 0 0 1 14.38-5.92 458.83 458.83 0 0 1 97.6 0 27.68 27.68 0 0 1 24.59 24.58q1 8.93 1.56 17.85a3 3 0 0 0 .04.31z" fill="#f40055"/></g></g></svg>